<svg width="263" height="267" viewBox="0 0 263 267" fill="none" xmlns="http://www.w3.org/2000/svg">
<g clip-path="url(#clip0_257_143)">
<path fill-rule="evenodd" clip-rule="evenodd" d="M122.192 0L127.432 0L132.434 1.24004L138.079 4.03014L142.768 2.48009L144.019 2.17008H149.977L154.978 3.41012L159.355 5.5802L162.794 8.3703L164.044 8.99032L166.857 8.06029L168.733 7.75027H173.735L178.424 8.68031L181.55 9.92035L184.363 11.7804L187.489 14.5705L190.615 18.9107L199.699 19.5307L205.97 21.0807L212.24 23.5608L217.555 26.6609L223.825 31.3111V31.9311L225.076 32.5512L228.514 36.2713L231.328 40.6114L233.203 44.9516L234.766 50.2218L238.83 52.0818L242.269 54.2519L245.395 57.042L247.583 60.1421L249.146 63.5522L250.084 66.6524L250.397 68.8224V72.8526L249.459 78.761L251.334 79.3811L254.461 82.1712L256.336 84.3412L258.524 88.0614L259.775 91.7815L260.087 93.3316V99.55L259.15 103.89L258.837 107.92L259.462 110.71L261.65 117.239L262.588 122.199V130.588L261.65 136.496L260.087 141.766L258.212 146.106L256.336 149.206L253.21 153.237L249.459 157.267L246.958 159.437L242.269 162.847L237.267 165.327L231.622 167.187L227.558 168.117L225.057 168.427H217.849L211.266 167.497L206.264 165.947L202.513 164.397L197.511 161.607L194.073 158.817L191.572 156.647L190.946 157.577L189.383 161.297L187.195 165.327L183.757 169.667L180.318 173.387L178.13 175.557L172.815 179.278L167.814 181.758L162.499 183.618L156.854 185.168L151.852 185.788H147.163L138.705 184.548L133.703 182.998L129.952 181.448L125.575 178.968L120.573 175.247L116.197 170.907L113.696 167.807L112.133 169.357L109.32 172.457L104.943 175.557L98.9853 178.348L96.1719 179.278L93.671 179.898L92.4206 182.068L90.8576 186.718L88.6693 190.128L85.8559 193.228L82.7298 196.018L79.6038 197.878L71.1818 201.307L61.4726 197.276L56.7836 194.486L52.7197 191.076L51.1567 190.146V190.766H50.2188V189.836L47.718 190.146H40.5097L35.1954 188.906L30.5063 187.046L27.3803 185.186L24.5668 183.016L22.3786 180.536L19.2525 176.196L17.0643 171.855L15.8139 167.205L15.1887 160.677L12.0626 157.887L9.87436 155.407L7.06091 151.687L4.87268 147.346L3.30965 141.438L2.99704 137.408L3.62225 131.499L4.87268 126.849L7.37352 121.889L9.56176 119.099L10.8122 117.549L6.74831 113.829L3.93486 110.729L2.05923 107.629L0.808805 103.908L0.183594 98.6382L0.496199 93.368L1.74662 89.3379L3.93486 85.6177L7.68612 81.5876L11.1248 79.1075L12.0626 78.4875L12.6878 71.959L14.5634 65.4306L17.6895 59.2121L21.1282 54.2519L24.8794 49.9118L28.0055 46.8117L33.6508 42.7815L35.839 41.2315L38.6524 37.2013L40.8407 34.4112L42.7163 30.6911L45.5298 27.281L48.0306 25.1109L51.7819 22.9408L58.365 20.7707L63.3667 19.2207L65.8675 16.1206L68.9936 13.0205L73.6826 9.61034L78.3717 7.13025L84.3296 4.96018L91.2253 3.41012L94.3514 3.10011H101.56L106.561 3.72013L108.124 4.03014H110.625L114.689 2.48009L117.19 1.24004L122.192 0ZM81.9667 206.878L83.3734 203.458L83.686 201.908L81.9667 206.878Z" fill="#FDFEFE"/>
<path d="M57.6117 72.6702L59.1747 73.2902L58.2369 76.0804L59.7999 76.7004L61.6756 77.3204H66.3646L69.4907 75.7703L72.3041 73.2902L85.452 79.8187L91.4099 82.9188L99.556 86.949L100.806 86.3289L101.119 85.7089L102.369 86.3289L102.057 87.569H99.556L99.2434 90.9791L99.8686 94.0792L98.3056 95.3193L93.9291 97.4893L87.0334 101.209L79.8251 104.93L62.595 111.768H61.6572L60.4067 109.598L58.5311 108.048L55.0925 107.118H51.9664L48.8403 108.048L46.0269 110.528L44.1513 114.248L44.4639 115.488L45.7143 115.798L46.0269 116.108V117.658L44.1513 118.278L46.3395 122.618L48.5277 124.479L52.279 126.339V131.937L51.0286 173.241L50.716 185.66L50.0908 186.9L47.2773 187.21H41.0068L35.6925 185.97L31.6287 184.42L28.19 182.25L25.6892 180.08L23.1883 176.98L20.6875 172.95L19.1244 168.609L18.4992 164.889L18.1866 160.549L16.9362 158.379L12.8723 154.349L9.43367 150.009L7.24543 145.359L6.30762 141.639V133.87L7.55804 128.6L10.6841 122.691L12.8723 119.901L13.8101 118.971L20.0806 118.661L39.8116 118.041L44.188 117.731L44.5006 116.801L43.8754 116.491H16.311L16.9362 115.251L20.0623 112.151L22.5631 109.981L37.8992 94.7722L40.4 92.6021L57.0049 76.1351H57.6301L57.0049 73.345L57.6301 72.7249L57.6117 72.6702Z" fill="#A0D0DA"/>
<path d="M113.678 96.2676L114.928 96.5776V97.8176L114.616 98.7477L115.554 100.608L119.618 105.568L125.888 113.646L126.201 115.196L122.762 123.275L120.574 128.545L121.824 131.025L120.261 131.955L119.636 131.335V129.165H115.259L111.508 130.715L109.945 132.265L109.633 133.815V134.745H110.258L110.57 135.985L110.258 136.295H108.695L108.069 135.985L107.757 139.396L109.007 143.116L110.883 145.596L114.634 148.076L114.322 152.416L112.759 162.665L112.133 164.215L106.819 164.835L64.5438 168.555L62.9807 169.485L53.5842 183.454H52.959L53.2716 166.057L54.2094 131.901L54.522 126.302L58.8985 124.442L60.4615 123.202L62.0245 121.032L62.9624 118.862L63.275 113.263L70.7959 110.473L79.2546 107.063L81.1302 106.443L81.4429 107.373L82.0681 116.072H83.9437V118.242L82.3807 117.932L81.7555 116.072L79.2546 116.692L76.7538 118.552L74.8781 121.342L74.2529 122.892V126.922L75.1907 130.022L77.379 132.812L81.1302 134.672L84.2563 134.982L87.3824 134.052L89.258 132.812L90.821 131.572L91.1336 129.712L90.1958 128.472V127.542H92.384L93.0093 127.232V124.132L91.7588 120.722L90.821 118.862V117.312L93.3219 113.592L97.6983 107.683L101.762 102.085L103.638 99.2947L103.325 98.0547L102.075 98.3647L98.9488 102.395L96.7605 105.495L93.6345 109.835L89.8832 114.795L88.3202 116.965L86.7571 116.345L84.2563 116.035L83.9437 115.725L83.6311 112.005V105.167L90.5268 101.447L99.2981 96.7964L101.174 96.4864L102.112 97.4164L103.362 96.4864L104.925 96.7964L104.612 99.5865L106.175 99.8965H110.552L113.678 98.9665L113.365 97.7264L112.428 96.7964L113.678 96.1764V96.2676Z" fill="#A0D0DA"/>
<path d="M233.296 53.7231L236.11 54.0331L239.861 56.2032L242.362 58.3732L244.863 61.7834L246.738 65.8135L247.364 68.2936V73.5638L246.113 79.1622L247.676 80.7123L250.802 82.8824L253.303 85.3624L255.179 88.4625L256.429 91.2527L257.054 93.4227V99.3312L256.117 103.361L253.616 104.291L229.196 110.51L222.613 112.06L221.05 111.75L218.549 108.65L216.986 107.72H215.423L215.11 108.65H213.86L213.547 106.48H210.734L207.92 107.1L206.044 108.34L204.169 110.51L202.918 112.37L199.167 111.75L177.561 106.79L174.122 106.48L173.497 107.72L171.934 107.41L171.621 106.17L174.435 105.24L173.497 100.589L173.184 99.3494L176.623 96.2493L180.999 92.8392L184.125 90.0491L187.251 87.569L190.69 84.7789L194.754 81.3688L200.068 77.0286L203.819 73.9285L204.757 73.3085L205.382 72.3784L206.633 73.9285L209.134 75.1686L210.384 75.4786H215.073L217.574 74.5485L220.7 71.7584L222.263 68.9683L222.576 67.7283V63.0781L221.638 60.598L223.201 59.358L228.846 55.6379L230.722 54.7078L229.784 58.428L227.283 65.8865L222.907 79.2352L218.53 92.8939L215.404 102.212L214.466 105.933L215.092 106.863H216.029L218.218 100.024L223.219 84.5054L226.345 74.8768L231.991 57.7897L233.241 53.7596L233.296 53.7231Z" fill="#A0D0DA"/>
<path d="M255.214 106.826H255.839V108.996L258.965 118.625L259.591 121.725L259.903 127.323L259.278 133.232L258.028 138.502L256.465 142.842L253.651 148.112L251.15 151.522L247.086 155.863L242.71 158.963L238.021 161.753L233.332 163.613L226.749 165.163L222.372 165.783H219.246L214.557 165.163L209.868 163.923L205.804 162.373L200.49 159.583L192.344 153.364L192.656 149.954L193.907 143.736L194.845 142.806L197.658 142.496L201.409 140.636L203.598 137.845L204.535 135.365L204.848 132.575L204.535 130.095L210.493 127.305L214.557 125.445L214.87 124.825L214.245 125.135L210.493 125.445L211.744 124.205L218.952 121.105H219.89L219.265 122.345L217.389 123.585L219.265 123.275L232.1 117.367L243.997 111.768L250.268 108.978L254.332 107.118L255.269 106.808L255.214 106.826Z" fill="#A0D0DA"/>
<path d="M124.95 139.122H126.2L127.138 141.292L131.827 142.532L149.682 146.252L186.312 154.021L188.501 154.641L188.188 156.501L185.687 161.771L183.499 165.181L179.435 170.141L176.309 173.242L170.664 176.962L165.662 179.442L160.017 181.302L153.746 182.542L149.057 182.852L141.224 181.922L134.64 180.062L129.639 177.582L124.637 174.482L120.886 171.071L119.323 169.521L116.822 166.731L114.946 164.561V160.841L116.509 149.662L117.447 148.112L120.573 147.492L123.699 145.632L125.887 142.532L126.2 141.292L124.324 140.672L124.637 139.432L124.95 139.122Z" fill="#A0D0DA"/>
<path d="M119.618 66.7618L121.181 67.0718L126.182 71.7219L128.683 73.892L132.435 77.3021L136.498 81.0223L139.625 83.8124L142.125 85.9825L145.251 88.7725L149.94 93.1127L152.441 95.2828L155.567 98.0729L156.505 99.3129L155.255 102.103V105.823H157.13L157.443 107.373L156.193 108.303L156.505 109.853L158.381 112.333L161.194 113.883L162.445 114.193H166.821L169.635 112.953L171.823 111.093L173.698 107.993L195.93 112.953L202.826 114.503V112.643H204.389L205.014 113.573L204.702 114.813L202.201 115.123L203.139 119.154L204.076 121.324L205.639 120.704L206.89 121.014L207.202 122.254L205.327 122.874L205.014 122.254H204.076L202.201 124.734L200.325 125.044L198.137 124.114L196.261 123.804H193.76L190.947 124.424L188.446 126.284L186.57 129.074L183.757 128.764L166.214 124.114L139.294 116.655L133.023 114.795L132.398 114.175L133.648 113.555L140.231 112.005L150.878 109.215L155.255 108.285V106.735L152.129 107.045L130.835 112.643L128.021 112.953L125.52 110.163L121.457 104.893L117.393 99.9329L115.83 97.7629L116.455 96.5228L118.018 93.1127L118.331 91.8727V89.7026L117.393 86.6025L115.517 83.8124L113.954 82.5723L111.141 81.3323L111.766 76.3721L112.704 69.5336L113.329 68.9136L116.455 68.2936L119.581 66.7435L119.618 66.7618Z" fill="#A0D0DA"/>
<path d="M123.682 2.79013L127.746 3.10015L132.122 4.34019L135.874 6.51027L137.124 7.4403L138.687 7.13029L143.064 5.58023L144.939 5.27022H148.065L153.067 6.20025L156.818 7.75031L159.632 9.61037L160.882 11.1604L160.257 12.4005L154.612 17.9989L152.111 20.169L146.796 25.4392H146.171V26.0592L143.67 28.2293L133.023 38.7879L130.523 40.958L125.521 45.9181H124.896V46.5382H124.27V47.1582H123.645L123.02 48.3982L120.832 50.2583L120.519 50.8783L118.644 50.5683L117.081 49.6383L113.642 49.0182L113.329 47.7782L110.516 14.2423L109.891 7.40383L110.828 6.7838L113.642 6.16378L118.644 3.68369L120.832 3.06367L123.645 2.75366L123.682 2.79013Z" fill="#A0D0DA"/>
<path d="M61.6936 22.9773L62.9441 23.2873V58.3732L60.1306 59.3033L57.9424 60.5433L56.0667 62.7134L55.1289 64.2635L54.5037 67.9836L56.692 68.9136V70.7737L55.7541 71.0837L54.8163 69.8437V69.2236L45.1072 71.0837L25.6889 75.4239L17.2301 77.2839H15.3545V74.8038L16.2923 70.1537L18.1679 64.8835L20.6688 60.2333L23.7948 55.8932L26.6083 52.7931L28.7965 50.313L32.2352 47.5229L35.3612 45.3528L37.8621 43.8027L40.6755 39.4626L42.8638 36.6725L45.6772 32.0223L49.1159 28.3022L53.4924 25.8221L59.1376 23.962L61.6385 23.032L61.6936 22.9773Z" fill="#A0D0DA"/>
<path d="M128.076 116.145L131.202 116.455L176.603 129.183L184.75 131.354L185.687 132.284L186 135.384L187.25 138.484L189.126 140.654L191.939 142.514L191.627 145.304L190.064 152.143L189.126 152.763L182.543 151.212L135.891 141.274L127.745 139.724L127.12 139.414L126.182 135.074L124.306 131.974L122.118 130.114L123.056 127.323L126.182 120.485L127.745 116.455L128.058 116.145H128.076Z" fill="#A0D0DA"/>
<path d="M161.893 13.3488L162.831 13.6588L165.019 20.1872L170.021 35.706L173.772 46.8846L174.397 49.6747H175.022V50.2948L172.209 52.1548L171.271 52.4649L169.083 56.805L168.458 58.3551H123.369L122.744 55.565L121.493 53.0849V52.1548L123.994 49.9848L128.683 45.6446L136.829 37.5661L139.33 35.396L147.476 27.3175L149.977 25.1474L161.874 13.3488H161.893Z" fill="#A0D0DA"/>
<path d="M95.8222 6.21851H101.136L106.451 6.83853L107.701 7.45855L108.014 8.38858L110.515 36.9643L111.452 48.763L109.889 49.693L106.451 51.5531L104.888 51.243L101.136 48.1429L96.1348 44.4228L90.4895 40.0826L84.5316 35.7425L79.8425 32.0224L74.8408 28.3022L70.777 25.2021L66.0879 21.792L66.7131 20.2419L69.2139 17.1418L72.34 14.6617L77.0291 11.5616L83.9248 8.46153L90.1953 6.91147L95.8406 6.29145L95.8222 6.21851Z" fill="#A0D0DA"/>
<path d="M123.368 60.5616H168.77L170.02 63.9717L171.896 66.7618L173.459 68.0019L174.709 69.2419L173.459 73.8921L170.02 84.1407L167.207 93.4592L166.894 94.6993L168.145 95.9393V97.4894L166.581 97.7994L166.269 97.4894V95.0093L161.267 95.6293L158.766 96.8693L159.079 98.1094L159.704 99.6594L159.079 100.279L157.516 99.9695V97.1794L155.953 95.3193L153.452 93.1492L149.388 89.4291L145.95 86.639L143.761 84.4689L141.26 82.2988L137.509 78.8887L134.383 76.0986L131.882 73.9285L128.131 70.5184L125.63 68.3483L122.504 65.8682L121.879 64.3182L123.442 60.5981L123.368 60.5616Z" fill="#A0D0DA"/>
<path d="M53.2351 71.4302H55.1108L56.0486 72.9802L56.3612 73.6003L55.4234 75.1503L51.6721 78.5604L41.6503 88.499H41.0251L40.7125 89.4291L38.2117 91.5991L24.126 105.568L21.6252 107.738L14.1043 115.196L12.8539 114.886L10.353 113.026L7.85217 110.546L5.03872 106.826L3.47569 103.106L3.16309 100.936V95.0275L4.41351 90.9973L6.28914 87.5872L9.41519 84.1771L13.1665 81.387L15.6673 79.8369L24.126 77.9769L43.2318 73.6367L53.2535 71.4666L53.2351 71.4302Z" fill="#A0D0DA"/>
<path d="M113.678 96.2676L114.929 96.5776V97.8176L114.616 98.7477L115.554 100.608L119.618 105.568L125.888 113.646L126.201 115.196L122.762 123.275L120.574 128.545L121.824 131.025L120.261 131.955L119.636 131.335V129.165H115.26L111.508 130.715L109.945 132.265L109.633 133.815V134.745H110.258L110.57 135.985L110.258 136.295H108.695L107.444 135.675L104.631 134.745L95.2344 131.335L92.1083 129.785V127.925L93.0461 127.305V124.205L91.7957 120.795L90.8579 118.935V117.385L93.3587 113.665L97.7352 107.756L101.799 102.158L103.675 99.3677L103.362 98.1276L102.112 98.4376L98.9856 102.468L96.7974 105.568L93.6713 109.908L89.9201 114.868L88.357 117.038L86.794 116.418L84.2932 116.108L83.9806 115.798L83.668 112.078V105.24L90.5637 101.52L99.335 96.8694L101.211 96.5593L102.148 97.4894L103.399 96.5593L104.962 96.8694L104.649 99.6595L106.212 99.9695H110.589L113.715 99.0394L113.402 97.7994L112.464 96.8694L113.715 96.2493L113.678 96.2676Z" fill="#A0D0DA"/>
<path d="M65.1325 23.9073L66.3829 24.5274L71.3846 28.2475L75.7611 31.6576L79.8249 34.7577L83.5762 37.5478L87.6401 40.6479L93.2854 44.9881L98.5996 49.0182L103.601 52.7384L104.539 53.6684L103.601 56.7685L103.289 59.5586L101.1 60.1786L80.7444 63.8988L73.536 65.1388L70.7226 61.1087L69.1596 59.8686L65.0957 58.3186V23.9073H65.1325Z" fill="#A0D0DA"/>
<path d="M108.658 166.458H109.909L109.283 167.698L107.095 170.178L103.657 172.968L98.6548 175.448L94.591 176.378L92.0901 176.998L91.1523 177.928L89.2767 181.338L88.0262 185.678L85.838 189.088L83.3372 191.879L79.8985 194.359L76.7724 195.909L73.0212 196.839H70.2077L65.206 195.599L60.8296 193.429L56.4531 190.329L53.6396 187.848L53.9523 186.608L56.7657 181.958L61.4548 175.12L64.2682 170.78L65.8313 170.16L84.3118 168.61L108.732 166.439L108.658 166.458Z" fill="#A0D0DA"/>
<path d="M192.271 22.3573H196.647L202.605 23.2874L206.356 24.5274L213.564 27.9375L217.316 30.4176L221.692 33.8277L222.943 35.0678V35.6878H223.568L225.756 38.1679L227.632 40.958L230.133 45.9182L231.07 48.7083L231.383 51.4984L227.944 53.9784L224.506 56.1485L221.067 58.6286L219.817 58.0086L218.254 56.7685L215.44 55.5285L214.19 55.2185H211.064L208.875 55.8385L205.437 48.69L202.623 43.4198L196.353 31.0012L193.227 25.0927L192.289 23.2326V22.3026L192.271 22.3573Z" fill="#A0D0DA"/>
<path d="M188.814 62.7317L192.565 63.0417L198.21 63.9717L202.274 64.5917L202.899 68.3119L204.462 71.412L202.587 72.652L197.585 76.6822L194.146 79.4723L189.457 83.5024L185.393 86.6025L181.017 90.3226L176.64 93.7328L173.514 96.5229L171.951 98.0729V98.6929L172.889 99.623L171.639 100.553L170.076 100.243L170.388 99.0029L171.013 98.3829L170.701 96.8329L168.825 95.9028L169.45 93.1127L174.139 78.524L176.64 70.1355L177.578 69.8254L180.079 69.5154L183.205 68.5854L186.019 66.7253L188.207 63.6252L188.832 62.6952L188.814 62.7317Z" fill="#A0D0DA"/>
<path d="M169.727 10.5586H173.165L177.542 11.4887L182.544 13.9687L185.67 16.7588L187.858 20.169L188.483 21.409L188.17 23.8891L182.213 44.6963L181.275 48.1064V49.9665L180.337 49.6565L176.586 49.3465L170.315 30.3993L164.67 13.3123V11.7622L167.483 10.8322L169.672 10.5222L169.727 10.5586Z" fill="#A0D0DA"/>
<path d="M103.031 61.8016H103.656L105.532 65.2118L108.033 67.3818L110.846 68.6219L109.908 76.7004L109.283 80.7305L107.72 81.3506L103.969 82.2806L101.781 84.1407L101.155 85.3807L99.9049 85.0707L93.947 81.9706L73.2783 71.722L73.5909 67.6918L71.7153 67.3818L70.4648 66.4518V65.8318L73.2783 65.5218L73.5909 67.3818L77.3422 66.4518L94.8848 63.3517L103.031 61.8016Z" fill="#A0D0DA"/>
<path d="M190.395 24.5273L191.333 25.7674L201.667 46.2646L204.793 52.173L206.669 56.2032L206.356 57.4432L204.793 58.9933L202.605 62.4034L197.604 61.7834L189.77 60.5433L189.145 60.2333L188.52 56.2032L186.644 52.7931L183.831 50.933L182.58 50.003L185.394 40.9944L189.77 25.4756L190.395 24.5456V24.5273Z" fill="#A0D0DA"/>
<path d="M99.8873 96.5776L101.45 96.8876L102.076 97.5076V98.4376L98.9495 102.468L96.7613 105.568L93.6352 109.908L89.8839 114.868L88.3209 117.038L86.7579 116.418L84.257 116.108L83.9444 115.798L83.6318 112.078V105.24L90.5275 101.519L99.2989 96.8693L99.9241 96.5593L99.8873 96.5776Z" fill="#A0D0DA"/>
<path d="M242.361 109.306H243.924L242.674 110.236L235.465 113.646L222.317 119.555H221.067L221.38 114.905L219.504 114.595L219.191 113.045L221.067 112.735L221.692 114.285L239.548 109.945L242.361 109.325V109.306Z" fill="#A0D0DA"/>
<path d="M92.0713 128.253L94.2595 128.563L100.53 130.734L107.113 133.214L108.989 134.144V135.074L107.426 135.694L104.612 134.764L95.2157 131.354L92.0897 129.803V128.253H92.0713Z" fill="#FEFFFF"/>
<path d="M205.731 123.603L207.607 124.223L208.858 125.773L206.044 127.013L204.481 127.633H201.98L201.042 128.563L200.105 128.253L199.792 126.703L200.105 126.393H203.231L205.731 123.603Z" fill="#A0D0DA"/>
<path d="M87.6769 117.385L89.5525 117.695L90.1777 118.315L88.9273 119.865L87.3643 119.555L87.6769 117.385Z" fill="#A0D0DA"/>
<path d="M202.918 128.253L203.855 129.183L203.543 130.734H201.98L201.354 129.183L202.918 128.253Z" fill="#A0D0DA"/>
<path d="M115.554 145.651L116.804 145.961L117.429 148.131L115.241 147.821V145.961L115.554 145.651Z" fill="#A0D0DA"/>
<path d="M186.313 128.873H187.876L188.501 129.803L187.25 131.043H186V129.183L186.313 128.873Z" fill="#A0D0DA"/>
<path d="M193.209 140.052L194.46 140.672V142.222L194.147 142.532H192.584V140.672L193.209 140.052Z" fill="#A0D0DA"/>
<path d="M52.2969 124.223H54.4851L54.7977 125.773L54.1725 126.083L52.2969 125.463V124.223Z" fill="#A0D0DA"/>
<path d="M71.0902 70.8102L72.9658 71.1202L72.3406 72.9803L71.0902 72.6702L70.1523 71.4302L71.0902 70.8102Z" fill="#A0D0DA"/>
<path d="M64.1949 58.3733L65.1327 58.9933L64.8201 60.2334L63.8823 60.5434L62.6318 59.3033V58.6833L64.1949 58.3733Z" fill="#A0D0DA"/>
<path d="M60.756 112.406L62.319 112.716V113.956L61.0686 114.266L60.4434 113.956L60.756 112.406Z" fill="#A0D0DA"/>
<path d="M100.825 93.7875L102.7 94.0975L102.075 95.3375L100.199 95.0275L99.8867 94.0975L100.825 93.7875Z" fill="#A0D0DA"/>
<path d="M108.971 81.6788H111.159L110.534 83.2289L108.971 82.9189V81.6788Z" fill="#A0D0DA"/>
</g>
<defs>
<clipPath id="clip0_257_143">
<rect width="262.717" height="266.755" fill="white"/>
</clipPath>
</defs>
</svg>
