<svg width="12" height="13" viewBox="0 0 12 13" fill="none" xmlns="http://www.w3.org/2000/svg">
<path fill-rule="evenodd" clip-rule="evenodd" d="M5.98915 0.653442C4.37598 0.653442 4.17353 0.660496 3.53995 0.689329C2.9076 0.718286 2.47597 0.818397 2.0983 0.965285C1.70763 1.117 1.37623 1.31994 1.04607 1.65022C0.71567 1.98038 0.512725 2.31178 0.360516 2.70232C0.213257 3.08012 0.113022 3.51187 0.0845605 4.14397C0.0562224 4.77756 0.0487976 4.98013 0.0487976 6.5933C0.0487976 8.20646 0.0559749 8.40829 0.0846842 9.04188C0.113765 9.67422 0.213876 10.1059 0.36064 10.4835C0.512478 10.8742 0.715423 11.2056 1.0457 11.5358C1.37574 11.8662 1.70713 12.0696 2.09755 12.2213C2.47548 12.3682 2.90723 12.4683 3.53945 12.4973C4.17304 12.5261 4.37536 12.5332 5.98841 12.5332C7.60169 12.5332 7.80353 12.5261 8.43711 12.4973C9.06946 12.4683 9.50158 12.3682 9.87951 12.2213C10.2701 12.0696 10.6009 11.8662 10.931 11.5358C11.2614 11.2056 11.4643 10.8742 11.6165 10.4837C11.7626 10.1059 11.8628 9.6741 11.8925 9.042C11.921 8.40842 11.9284 8.20646 11.9284 6.5933C11.9284 4.98013 11.921 4.77768 11.8925 4.1441C11.8628 3.51175 11.7626 3.08012 11.6165 2.70244C11.4643 2.31178 11.2614 1.98038 10.931 1.65022C10.6006 1.31982 10.2702 1.11687 9.87913 0.965285C9.50047 0.818397 9.06859 0.718286 8.43624 0.689329C7.80266 0.660496 7.60095 0.653442 5.98729 0.653442H5.98915ZM5.45627 1.72384C5.61442 1.72359 5.79088 1.72384 5.98912 1.72384C7.57506 1.72384 7.76303 1.72953 8.38932 1.75799C8.96845 1.78447 9.28277 1.88124 9.49215 1.96254C9.76934 2.0702 9.96697 2.1989 10.1747 2.4068C10.3826 2.61469 10.5113 2.81269 10.6192 3.08988C10.7005 3.29901 10.7974 3.61333 10.8238 4.19247C10.8523 4.81863 10.8584 5.00672 10.8584 6.59192C10.8584 8.17712 10.8523 8.36521 10.8238 8.99137C10.7973 9.57051 10.7005 9.88483 10.6192 10.094C10.5116 10.3712 10.3826 10.5685 10.1747 10.7763C9.96684 10.9842 9.76947 11.1129 9.49215 11.2206C9.28302 11.3022 8.96845 11.3987 8.38932 11.4252C7.76316 11.4537 7.57506 11.4599 5.98912 11.4599C4.40306 11.4599 4.21509 11.4537 3.58893 11.4252C3.00979 11.3985 2.69547 11.3017 2.48597 11.2204C2.20878 11.1128 2.01078 10.9841 1.80289 10.7762C1.59499 10.5683 1.46629 10.3708 1.35839 10.0935C1.27708 9.88433 1.18019 9.57001 1.15383 8.99088C1.12537 8.36472 1.11968 8.17662 1.11968 6.59043C1.11968 5.00425 1.12537 4.81714 1.15383 4.19098C1.18031 3.61184 1.27708 3.29753 1.35839 3.08815C1.46605 2.81095 1.59499 2.61296 1.80289 2.40506C2.01078 2.19717 2.20878 2.06847 2.48597 1.96056C2.69535 1.87889 3.00979 1.78237 3.58893 1.75576C4.13688 1.73101 4.34923 1.72359 5.45627 1.72235V1.72384ZM9.15977 2.7101C8.76625 2.7101 8.44699 3.029 8.44699 3.42264C8.44699 3.81615 8.76625 4.13542 9.15977 4.13542C9.55329 4.13542 9.87255 3.81615 9.87255 3.42264C9.87255 3.02912 9.55329 2.7101 9.15977 2.7101ZM5.98916 3.54292C4.30459 3.54292 2.93879 4.90871 2.93879 6.59328C2.93879 8.27785 4.30459 9.64302 5.98916 9.64302C7.67373 9.64302 9.03903 8.27785 9.03903 6.59328C9.03903 4.90871 7.67373 3.54292 5.98916 3.54292ZM5.98913 4.61333C7.08256 4.61333 7.96909 5.49973 7.96909 6.59328C7.96909 7.68671 7.08256 8.57323 5.98913 8.57323C4.89558 8.57323 4.00918 7.68671 4.00918 6.59328C4.00918 5.49973 4.89558 4.61333 5.98913 4.61333Z" fill="white"/>
</svg>
