<svg width="14" height="14" viewBox="0 0 14 14" fill="none" xmlns="http://www.w3.org/2000/svg">
<path fill-rule="evenodd" clip-rule="evenodd" d="M12.4608 1.58584C12.6026 1.72765 12.6506 1.93816 12.5844 2.12745L8.93002 12.5685C8.8593 12.7705 8.67243 12.9089 8.45855 12.9176C8.24468 12.9264 8.04715 12.8037 7.96021 12.6081L5.95355 8.09307L1.43857 6.08641C1.24297 5.99948 1.12025 5.80195 1.12898 5.58807C1.1377 5.3742 1.2761 5.18732 1.47813 5.11661L11.9192 1.46225C12.1085 1.39599 12.319 1.44403 12.4608 1.58584ZM6.97174 7.81318L8.37953 10.9807L10.8432 3.94176L6.97174 7.81318ZM10.1049 3.20346L3.06592 5.6671L6.23345 7.07489L10.1049 3.20346Z" fill="white"/>
</svg>
