<svg width="13" height="13" viewBox="0 0 13 13" fill="none" xmlns="http://www.w3.org/2000/svg">
<path fill-rule="evenodd" clip-rule="evenodd" d="M12.3397 6.585C12.3397 6.9867 12.2988 7.38784 12.2185 7.77885C12.1402 8.16058 12.0241 8.53535 11.8722 8.89361C11.7237 9.24553 11.5395 9.58466 11.3243 9.90093C11.1123 10.2152 10.868 10.51 10.5997 10.7788C10.3309 11.0464 10.035 11.29 9.72091 11.5029C9.40361 11.7166 9.06399 11.9005 8.71186 12.0497C8.35309 12.2009 7.97745 12.3167 7.59605 12.3949C7.20452 12.4754 6.80192 12.5165 6.39964 12.5165C5.99706 12.5165 5.59448 12.4754 5.2035 12.3949C4.82152 12.3167 4.44591 12.2009 4.08741 12.0497C3.73531 11.9005 3.39536 11.7166 3.07806 11.5029C2.76395 11.29 2.4681 11.0464 2.19981 10.7788C1.93124 10.51 1.68701 10.2152 1.4747 9.90093C1.26064 9.58466 1.07616 9.24551 0.927092 8.89361C0.77509 8.53535 0.658799 8.16056 0.580194 7.77885C0.500729 7.38784 0.460114 6.9867 0.460114 6.585C0.460114 6.183 0.500706 5.781 0.580218 5.39085C0.658822 5.00912 0.775114 4.63377 0.927115 4.27609C1.07619 3.92391 1.26067 3.58448 1.47472 3.26819C1.68703 2.95367 1.93126 2.65939 2.19983 2.39033C2.46813 2.1227 2.76397 1.87973 3.07809 1.66714C3.39539 1.45252 3.73533 1.26863 4.08744 1.11917C4.44594 0.967663 4.82152 0.851539 5.20353 0.77393C5.5945 0.694 5.99708 0.653442 6.39966 0.653442C6.80194 0.653442 7.20452 0.694 7.59608 0.77393C7.97748 0.851563 8.35309 0.967686 8.71189 1.11917C9.06399 1.2686 9.40364 1.45252 9.72094 1.66714C10.0351 1.87973 10.3309 2.1227 10.5998 2.39033C10.8681 2.65939 11.1123 2.95367 11.3243 3.26819C11.5395 3.58448 11.7237 3.92394 11.8722 4.27609C12.0241 4.63377 12.1402 5.00912 12.2185 5.39085C12.2988 5.781 12.3397 6.183 12.3397 6.585ZM4.23531 2.00339C2.82075 2.67041 1.76499 3.97198 1.43578 5.5406C1.56951 5.54176 3.68335 5.56841 6.11884 4.92223C5.24089 3.36462 4.30289 2.09348 4.23531 2.00339ZM6.53911 5.70223C3.92728 6.48303 1.42099 6.42685 1.33109 6.42339C1.32963 6.47783 1.32702 6.53053 1.32702 6.58499C1.32702 7.88626 1.81864 9.07257 2.62671 9.96957C2.62496 9.96695 4.01314 7.50774 6.75056 6.62381C6.81668 6.6018 6.88399 6.58209 6.95069 6.56299C6.82338 6.27512 6.68442 5.98664 6.53911 5.70223ZM9.74963 2.78336C8.85657 1.99701 7.68394 1.52002 6.39962 1.52002C5.98746 1.52002 5.58749 1.56984 5.20435 1.66194C5.28032 1.7639 6.23314 3.02608 7.10065 4.61668C9.01466 3.90016 9.73715 2.80188 9.74963 2.78336ZM7.29646 7.40232C7.28516 7.40606 7.27386 7.40928 7.26282 7.41332C4.2699 8.45519 3.29253 10.5549 3.28195 10.5778C4.14311 11.2465 5.22324 11.65 6.39966 11.65C7.10212 11.65 7.77125 11.5072 8.38005 11.2486C8.30493 10.806 8.01025 9.25477 7.29646 7.40232ZM9.23422 10.7857C10.3732 10.0182 11.1821 8.79949 11.4078 7.38781C11.3034 7.35422 9.88419 6.90558 8.24689 7.16771C8.91225 8.99353 9.18259 10.4805 9.23422 10.7857ZM7.49109 5.37146C7.60882 5.61301 7.72283 5.85886 7.82811 6.10594C7.86554 6.19458 7.90208 6.28148 7.93775 6.36835C9.68033 6.14938 11.3971 6.51779 11.4705 6.53283C11.4589 5.33206 11.0287 4.23002 10.317 3.36725C10.3074 3.38083 9.49385 4.55469 7.49109 5.37146Z" fill="white"/>
</svg>
