<svg width="100" height="78" viewBox="0 0 100 78" fill="none" xmlns="http://www.w3.org/2000/svg">
<g clip-path="url(#clip0_263_1090)">
<path d="M46.762 0H48.797L50.7122 0.358608L52.8739 1.16548L54.6695 0.717215L55.1483 0.627563H57.4297L59.345 0.986171L61.0208 1.61373L62.3376 2.4206L62.8164 2.59991L63.8937 2.33095L64.612 2.2413H66.5272L68.3228 2.51025L69.5198 2.86886L70.5972 3.40677L71.7942 4.21364L72.9912 5.46877L76.4697 5.64807L78.8708 6.09633L81.2719 6.81355L83.3069 7.71007L85.708 9.05484V9.23415L86.1868 9.41345L87.5036 10.4893L88.5809 11.7444L89.2991 12.9995L89.8977 14.5236L91.4538 15.0615L92.7705 15.6891L93.9676 16.496L94.8055 17.3925L95.404 18.3786L95.7631 19.2752L95.8828 19.9027V21.0682L95.5237 22.7769L96.242 22.9562L97.439 23.763L98.1572 24.3906L98.9951 25.4664L99.474 26.5422L99.5937 26.9905V28.7888L99.2345 30.0439L99.1148 31.2094L99.3543 32.0163L100.192 33.9042L100.551 35.3387V37.7646L100.192 39.4732L99.5937 40.9973L98.8754 42.2524L98.1572 43.1489L96.9602 44.3144L95.5237 45.4799L94.5661 46.1075L92.7705 47.0936L90.8553 47.8108L88.6936 48.3488L87.1374 48.6177L86.1798 48.7074H83.4196L80.8987 48.4384L78.9835 47.9901L77.547 47.5419L75.6318 46.735L74.315 45.9282L73.3574 45.3006L73.118 45.5695L72.5195 46.6454L71.6815 47.8108L70.3648 49.066L69.048 50.1418L68.2101 50.7694L66.1751 51.8452L64.2599 52.5624L62.2249 53.1003L60.0632 53.5486L58.1479 53.7279H56.3524L53.1133 53.3693L51.1981 52.921L49.7616 52.4727L48.0858 51.7555L46.1705 50.6797L44.4946 49.4246L43.537 48.5281L42.9385 48.9763L41.8612 49.8728L40.1853 50.7694L37.9039 51.5762L36.8266 51.8452L35.8689 52.0245L35.3901 52.652L34.7916 53.9968L33.9537 54.983L32.8763 55.8795L31.6793 56.6864L30.4822 57.2243L29.4049 57.4932L31.5666 58.1208L32.0454 58.3898L31.9257 58.838L30.8484 60.8156L30.609 60.9053L28.9331 60.3674L27.2573 60.0984H25.342L24.2647 60.3674L23.9056 60.726V61.2639L24.5041 61.7122L26.6658 62.1604L28.9472 62.6087L30.5034 63.0569L31.7004 63.6845L32.1792 64.1328L32.658 64.9396L32.7777 65.2086V66.3741L32.4186 67.3602L31.7004 68.1671L30.6231 68.8843L29.0669 69.4222L27.7502 69.6912L26.9123 69.7808H24.6308L22.3494 69.5119L20.4342 69.0636L19.2371 68.6154L18.9977 68.2568L19.7159 67.0913L20.3145 66.0155L21.0327 66.1051L21.9903 66.4637L23.9056 66.912L24.8632 67.0016H26.7785L27.7361 66.7327L28.0952 66.5534L28.2149 66.1948L27.9755 65.6568L27.0179 65.2982L22.8212 64.4914L21.3847 64.0431L20.4271 63.5052L19.7089 62.8776L19.3498 62.2501L19.2301 61.8018V60.5467L19.7089 59.5605L20.4271 58.8433L21.3847 58.2157L22.8212 57.6778L24.1379 57.4089L23.5394 57.0503L21.7439 56.2434L20.1877 55.2572L19.5892 54.9883V55.1676H19.2301V54.8986L18.2724 54.9883H15.5122L13.4772 54.6297L11.6817 54.0918L10.4846 53.5538L9.40731 52.9263L8.56938 52.2091L7.37234 50.9539L6.53442 49.6988L6.0556 48.354L5.81619 46.4661L4.61915 45.6592L3.78123 44.942L2.70389 43.8662L1.86596 42.611L1.26744 40.9024L1.14774 39.7369L1.38715 38.0282L1.86596 36.6835L2.82359 35.249L3.66152 34.4422L4.14034 33.9939L2.58419 32.9181L1.50685 32.0216L0.788628 31.125L0.309812 30.0492L0.0704041 28.5251L0.190108 27.0011L0.668924 25.8356L1.50685 24.7598L2.9433 23.5943L4.26004 22.8771L4.61915 22.6978L4.85856 20.8098L5.57679 18.9218L6.77382 17.1235L8.09057 15.6891L9.52702 14.434L10.7241 13.5374L12.8858 12.372L13.7237 11.9237L14.801 10.7582L15.639 9.95136L16.3572 8.87554L17.4345 7.88937L18.3921 7.26181L19.8286 6.63424L22.3494 6.00668L24.2647 5.55842L25.2223 4.6619L26.4194 3.76538L28.2149 2.77921L30.0105 2.06199L32.2919 1.43443L34.9324 0.986171L36.1295 0.896519H38.8897L40.805 1.07582L41.4035 1.16548H42.3611L43.9173 0.717215L44.8749 0.358608L46.7901 0L46.762 0Z" fill="white"/>
<path d="M22.0608 21.0154L22.6594 21.1947L22.3003 22.0016L22.8988 22.1809L23.617 22.3602H25.4126L26.6096 21.912L27.6869 21.1947L32.7215 23.0827L35.003 23.9792L38.1223 25.1447L38.6011 24.9654L38.7208 24.7861L39.1996 24.9654L39.0799 25.324H38.1223L38.0026 26.3102L38.242 27.2067L37.6435 27.5653L35.9676 28.1929L33.3271 29.2687L30.5669 30.3445L23.9691 32.3221H23.61L23.1311 31.6946L22.4129 31.2463L21.0962 30.9774H19.8991L18.7021 31.2463L17.6248 31.9635L16.9065 33.0393L17.0262 33.398L17.5051 33.4876L17.6248 33.5773V34.0255L16.9065 34.2048L17.7445 35.46L18.5824 35.9979L20.0188 36.5358V38.1548L19.54 50.0996L19.4203 53.6909L19.1809 54.0495L18.1036 54.1392H15.7025L13.6675 53.7806L12.1113 53.3323L10.7946 52.7048L9.83696 52.0772L8.87933 51.1807L7.9217 50.0152L7.32318 48.7601L7.08377 47.6843L6.96406 46.4291L6.48525 45.8016L4.9291 44.6361L3.61235 43.381L2.77443 42.0362L2.41531 40.9604V38.7138L2.89413 37.1897L4.09117 35.481L4.9291 34.6742L5.28821 34.4052L7.68933 34.3156L15.2448 34.1363L16.9206 34.0466L17.0403 33.7777L16.8009 33.688H6.24584L6.48525 33.3294L7.68229 32.4329L8.63992 31.8053L14.5125 27.4071L15.4701 26.7795L21.8285 22.0174H22.0679L21.8285 21.2106L22.0679 21.0313L22.0608 21.0154Z" fill="#50A3F2"/>
<path d="M43.5301 27.8395L44.0089 27.9292V28.2878L43.8892 28.5568L44.2483 29.0947L45.8045 30.5291L48.2056 32.8653L48.3253 33.3136L47.0085 35.6498L46.1706 37.1739L46.6494 37.8911L46.0509 38.1601L45.8115 37.9808V37.3532H44.1357L42.6992 37.8015L42.1007 38.2497L41.981 38.698V38.9669H42.2204L42.3401 39.3255L42.2204 39.4152H41.6219L41.3825 39.3255L41.2628 40.3117L41.7416 41.3875L42.4598 42.1047L43.8962 42.822L43.7765 44.0771L43.178 47.0409L42.9386 47.4891L40.9036 47.6684L24.7154 48.7443L24.1169 49.0132L20.5188 53.0528H20.2794L20.3991 48.0218L20.7582 38.1442L20.8779 36.5252L22.5537 35.9873L23.1523 35.6287L23.7508 35.0011L24.1099 34.3736L24.2296 32.7546L27.1095 31.9477L30.3486 30.9615L31.0668 30.7822L31.1865 31.0512L31.4259 33.5667H32.1441V34.1943L31.5456 34.1046L31.3062 33.5667L30.3486 33.746L29.3909 34.2839L28.6727 35.0908L28.4333 35.5391V36.7045L28.7924 37.6011L29.6304 38.4079L31.0668 38.9458L32.2638 39.0355L33.4609 38.7665L34.1791 38.4079L34.7776 38.0493L34.8973 37.5114L34.5382 37.1528V36.8838H35.3761L35.6155 36.7942V35.8977L35.1367 34.9115L34.7776 34.3736V33.9253L35.7353 32.8495L37.4111 31.1408L38.9673 29.5218L39.6855 28.715L39.5658 28.3564L39.087 28.446L37.8899 29.6115L37.052 30.508L35.855 31.7631L34.4185 33.1976L33.82 33.8251L33.2215 33.6458L32.2638 33.5562L32.1441 33.4665L32.0244 32.3907V30.4131L34.665 29.3373L38.0237 27.9925L38.7419 27.9028L39.101 28.1718L39.5799 27.9028L40.1784 27.9925L40.0587 28.7993L40.6572 28.889H42.3331L43.5301 28.62L43.4104 28.2614L43.0513 27.9925L43.5301 27.8132V27.8395Z" fill="#50A3F2"/>
<path d="M89.3343 15.5362L90.4116 15.6258L91.848 16.2534L92.8057 16.881L93.7633 17.8671L94.4815 19.0326L94.7209 19.7498V21.2739L94.2421 22.8929L94.8406 23.3412L96.0377 23.9688L96.9953 24.686L97.7135 25.5825L98.1923 26.3894L98.4318 27.0169V28.7256L98.0726 29.8911L97.115 30.16L87.764 31.9583L85.2432 32.4066L84.6447 32.3169L83.687 31.4204L83.0885 31.1515H82.49L82.3703 31.4204H81.8915L81.7718 30.7928H80.6945L79.6171 30.9722L78.8989 31.3308L78.1807 31.9583L77.7019 32.4962L76.2654 32.3169L67.9917 30.8825L66.675 30.7928L66.4356 31.1515L65.8371 31.0618L65.7174 30.7032L66.7947 30.4342L66.4356 29.0895L66.3159 28.7309L67.6326 27.8343L69.3085 26.8482L70.5055 26.0413L71.7026 25.3241L73.0193 24.5172L74.5755 23.531L76.6104 22.2759L78.0469 21.3794L78.406 21.2001L78.6454 20.9311L79.1242 21.3794L80.0819 21.738L80.5607 21.8277H82.3562L83.3139 21.5587L84.5109 20.7518L85.1094 19.945L85.2291 19.5864V18.2416L84.87 17.5244L85.4685 17.1658L87.6302 16.0899L88.3485 15.821L87.9893 16.8968L87.0317 19.0537L85.3559 22.914L83.68 26.864L82.483 29.5588L82.1239 30.6346L82.3633 30.9036H82.7224L83.5603 28.926L85.4756 24.4381L86.6726 21.6536L88.8343 16.7122L89.3131 15.5467L89.3343 15.5362Z" fill="#50A3F2"/>
<path d="M97.7276 30.893H97.967V31.5206L99.1641 34.3051L99.4035 35.2016L99.5232 36.8206L99.2838 38.5293L98.805 40.0533L98.2064 41.3085L97.1291 42.8326L96.1715 43.8187L94.6153 45.0739L92.9395 45.9704L91.1439 46.7772L89.3483 47.3152L86.8275 47.7634L85.1517 47.9427H83.9546L82.1591 47.7634L80.3635 47.4048L78.8074 46.9565L76.7724 46.1497L73.653 44.3514L73.7727 43.3652L74.2516 41.5669L74.6107 41.2979L75.688 41.2083L77.1245 40.6704L77.9624 39.8635L78.3215 39.1463L78.4412 38.3394L78.3215 37.6222L80.6029 36.8153L82.1591 36.2774L82.2788 36.0981L82.0394 36.1878L80.6029 36.2774L81.0817 35.9188L83.842 35.0223H84.2011L83.9617 35.3809L83.2434 35.7395L83.9617 35.6499L88.8766 33.9412L93.4324 32.3222L95.8335 31.5153L97.3896 30.9774L97.7488 30.8878L97.7276 30.893Z" fill="#50A3F2"/>
<path d="M47.8465 40.2327H48.3253L48.6844 40.8602L50.48 41.2188L57.3172 42.2947L71.3437 44.5412L72.1816 44.7205L72.0619 45.2584L71.1043 46.7825L70.2664 47.7687L68.7102 49.2031L67.5132 50.0997L65.3515 51.1755L63.4362 51.8927L61.2745 52.4306L58.8734 52.7892L57.0778 52.8789L54.0782 52.6099L51.5573 52.072L49.6421 51.3548L47.7268 50.4583L46.2904 49.4721L45.6918 49.0238L44.7342 48.217L44.016 47.5894V46.5136L44.6145 43.2808L44.9736 42.8326L46.1707 42.6533L47.3677 42.1154L48.2056 41.2188L48.3253 40.8602L47.6071 40.6809L47.7268 40.3223L47.8465 40.2327Z" fill="#50A3F2"/>
<path d="M45.8043 19.3068L46.4028 19.3964L48.3181 20.7412L49.2757 21.3688L50.7121 22.355L52.2683 23.4308L53.4653 24.2376L54.423 24.8652L55.62 25.6721L57.4156 26.9272L58.3732 27.5548L59.5702 28.3616L59.9294 28.7202L59.4505 29.5271V30.6029H60.1688L60.2885 31.0512L59.8097 31.3201L59.9294 31.7684L60.6476 32.4856L61.7249 32.9339L62.2037 33.0235H63.8796L64.9569 32.6649L65.7948 32.127L66.5131 31.2305L75.0261 32.6649L77.6667 33.1132V32.5753H78.2652L78.5046 32.8442L78.3849 33.2028L77.4273 33.2925L77.7864 34.458L78.1455 35.0855L78.744 34.9062L79.2228 34.9959L79.3425 35.3545L78.6243 35.5338L78.5046 35.3545H78.1455L77.4273 36.0717L76.709 36.1614L75.8711 35.8924L75.1529 35.8027H74.1953L73.1179 35.9821L72.1603 36.52L71.4421 37.3268L70.3647 37.2372L63.6472 35.8924L53.3386 33.7355L50.9375 33.1976L50.6981 33.0183L51.1769 32.839L53.6977 32.3907L57.7747 31.5838L59.4505 31.3149V30.8666L58.2535 30.9563L50.0995 32.5753L49.0222 32.6649L48.0646 31.8581L46.5084 30.334L44.9523 28.8995L44.3538 28.272L44.5932 27.9134L45.1917 26.9272L45.3114 26.5686V25.941L44.9523 25.0445L44.2341 24.2376L43.6355 23.879L42.5582 23.5204L42.7976 22.086L43.1567 20.1084L43.3961 19.9291L44.5932 19.7498L45.7902 19.3015L45.8043 19.3068Z" fill="#50A3F2"/>
<path d="M47.3606 0.806873L48.9168 0.896525L50.5926 1.25513L52.0291 1.8827L52.5079 2.15165L53.1064 2.062L54.7823 1.61374L55.5005 1.52409H56.6975L58.6128 1.79304L60.0492 2.2413L61.1266 2.77922L61.6054 3.22747L61.366 3.58608L59.2043 5.20509L58.2466 5.83265L56.2117 7.35674H55.9723V7.53604L55.0146 8.1636L50.9376 11.217L49.98 11.8446L48.0648 13.279H47.8253V13.4583H47.5859V13.6376H47.3465L47.1071 13.9963L46.2692 14.5342L46.1495 14.7135L45.4313 14.6238L44.8327 14.3549L43.516 14.1756L43.3963 13.8169L42.319 4.11872L42.0796 2.1411L42.4387 1.9618L43.516 1.7825L45.4313 1.06528L46.2692 0.885978L47.3465 0.796326L47.3606 0.806873Z" fill="#50A3F2"/>
<path d="M23.6239 6.64478L24.1027 6.73443V16.8809L23.0254 17.1499L22.1875 17.5085L21.4693 18.136L21.1101 18.5843L20.8707 19.6601L21.7087 19.9291V20.467L21.3495 20.5567L20.9904 20.198V20.0187L17.2726 20.5567L9.83685 21.8118L6.5978 22.3497H5.87958V21.6325L6.23869 20.2877L6.95691 18.7636L7.91454 17.4188L9.11158 16.1637L10.1889 15.2672L11.0268 14.55L12.3436 13.7431L13.5406 13.1155L14.4983 12.6673L15.5756 11.4121L16.4135 10.6053L17.4909 9.2605L18.8076 8.18468L20.4835 7.46746L22.6452 6.92955L23.6028 6.6606L23.6239 6.64478Z" fill="#50A3F2"/>
<path d="M49.0435 33.5878L50.2405 33.6775L67.6258 37.3585L70.7451 37.986L71.1042 38.255L71.2239 39.1515L71.7028 40.048L72.421 40.6756L73.4983 41.2135L73.3786 42.0204L72.7801 43.998L72.421 44.1773L69.9001 43.729L52.0361 40.8549L48.9168 40.4067L48.6773 40.317L48.3182 39.0619L47.6 38.1654L46.7621 37.6274L47.1212 36.8206L48.3182 34.843L48.9168 33.6775L49.0365 33.5878H49.0435Z" fill="#50A3F2"/>
<path d="M61.9925 3.86029L62.3516 3.94994L63.1895 5.83791L65.1048 10.3258L66.5412 13.5585L66.7806 14.3654H67.02V14.5447L65.9427 15.0826L65.5836 15.1723L64.7457 16.4274L64.5063 16.8756H47.2407L47.0013 16.0688L46.5225 15.3516V15.0826L47.4801 14.455L49.2757 13.1999L52.395 10.8637L53.3527 10.2361L56.472 7.8999L57.4296 7.27234L61.9854 3.86029H61.9925Z" fill="#50A3F2"/>
<path d="M36.6928 1.79834H38.7277L40.7627 1.97764L41.2415 2.15695L41.3612 2.4259L42.3189 10.6897L42.678 14.1017L42.0795 14.3707L40.7627 14.9086L40.1642 14.819L38.7277 13.9224L36.8125 12.8466L34.6508 11.5915L32.3694 10.3364L30.5738 9.26054L28.6585 8.18472L27.1024 7.2882L25.3068 6.30203L25.5462 5.85377L26.5039 4.95725L27.7009 4.24004L29.4965 3.34352L32.137 2.447L34.5381 1.99874L36.6998 1.81943L36.6928 1.79834Z" fill="#50A3F2"/>
<path d="M47.2409 17.5138H64.6262L65.105 18.5L65.8232 19.3068L66.4217 19.6654L66.9006 20.024L66.4217 21.3688L65.105 24.3326L64.0277 27.0274L63.908 27.3861L64.3868 27.7447V28.1929L63.7883 28.2826L63.6686 28.1929V27.4757L61.7533 27.655L60.7957 28.0136L60.9154 28.3722L61.1548 28.8205L60.9154 28.9998L60.3168 28.9101V28.1033L59.7183 27.5654L58.7607 26.9378L57.2045 25.862L55.8878 25.0551L55.0499 24.4275L54.0922 23.8L52.6558 22.8138L51.4588 22.0069L50.5011 21.3794L49.0647 20.3932L48.107 19.7656L46.91 19.0484L46.6706 18.6002L47.2691 17.5243L47.2409 17.5138Z" fill="#50A3F2"/>
<path d="M60.4365 57.6567H64.8726L65.8302 59.0912L67.5061 61.9653L69.4213 65.198L71.2169 68.2515L71.8154 69.2377L71.6957 69.5963H67.2596L66.9005 69.148L65.9429 67.3497L65.7035 67.26L59.5915 67.3497L59.2324 67.4393L58.3945 68.9634L58.0354 69.591H53.4796L53.3599 69.4117L54.3175 67.8876L54.916 66.8118L57.1975 62.9515L59.5986 58.9119L60.4365 57.6567Z" fill="white"/>
<path d="M20.3849 20.6569H21.1031L21.4622 21.1051L21.5819 21.2844L21.2228 21.7327L19.7864 22.7189L15.9488 25.593H15.7094L15.5897 25.8619L14.632 26.4895L9.23833 30.5291L8.2807 31.1567L5.40076 33.3136L4.92194 33.224L3.96431 32.686L3.00668 31.9688L1.92934 30.893L1.33082 29.8172L1.21112 29.1896V27.481L1.68994 26.3155L2.40816 25.3293L3.6052 24.3431L5.04165 23.5363L5.99928 23.088L9.23833 22.5501L16.5544 21.295L20.3919 20.6674L20.3849 20.6569Z" fill="#50A3F2"/>
<path d="M43.5299 27.8396L44.0087 27.9292V28.2878L43.889 28.5568L44.2481 29.0947L45.8043 30.5291L48.2054 32.8653L48.3251 33.3136L47.0083 35.6498L46.1704 37.1739L46.6492 37.8911L46.0507 38.1601L45.8113 37.9808V37.3532H44.1354L42.699 37.8015L42.1005 38.2497L41.9808 38.698V38.967H42.2202L42.3399 39.3256L42.2202 39.4152H41.6217L41.1428 39.2359L40.0655 38.967L36.4673 37.9808L35.2703 37.5325V36.9946L35.6294 36.8153V35.9188L35.1506 34.9326L34.7915 34.3947V33.9464L35.7491 32.8706L37.425 31.162L38.9811 29.543L39.6994 28.7361L39.5796 28.3775L39.1008 28.4671L37.9038 29.6326L37.0659 30.5291L35.8688 31.7842L34.4324 33.2187L33.8339 33.8462L33.2353 33.6669L32.2777 33.5773L32.158 33.4876L32.0383 32.4118V30.4342L34.6788 29.3584L38.0376 28.0136L38.7558 27.9239L39.1149 28.1929L39.5937 27.9239L40.1923 28.0136L40.0725 28.8205L40.6711 28.9101H42.3469L43.544 28.6412L43.4243 28.2826L43.0651 28.0136L43.544 27.8343L43.5299 27.8396Z" fill="#50A3F2"/>
<path d="M24.9408 6.91376L25.4196 7.09306L27.3349 8.16888L29.0107 9.15506L30.5669 10.0516L32.0033 10.8584L33.5595 11.755L35.7212 13.0101L37.7561 14.1756L39.6714 15.2514L40.0305 15.5203L39.6714 16.4169L39.5517 17.2237L38.7138 17.403L30.9189 18.4789L28.1587 18.8375L27.0814 17.672L26.4828 17.3134L24.9267 16.8651V6.91376H24.9408Z" fill="#50A3F2"/>
<path d="M41.6077 48.1378H42.0865L41.8471 48.4965L41.0092 49.2137L39.6924 50.0205L37.7772 50.7377L36.221 51.0067L35.2634 51.186L34.9043 51.455L34.186 52.4411L33.7072 53.6963L32.8693 54.6824L31.9117 55.4893L30.5949 56.2065L29.3979 56.6548L27.9614 56.9237H26.8841L24.9688 56.5651L23.293 55.9376L21.6171 55.041L20.5398 54.3238L20.6595 53.9652L21.7368 52.6204L23.5324 50.6428L24.6097 49.3877L25.2082 49.2084L32.2849 48.7601L41.6358 48.1326L41.6077 48.1378Z" fill="#50A3F2"/>
<path d="M73.6249 6.46547H75.3008L77.5822 6.73442L79.0187 7.09303L81.7789 8.0792L83.2153 8.79642L84.8912 9.78259L85.37 10.1412V10.3205H85.6094L86.4473 11.0377L87.1656 11.8446L88.1232 13.279L88.4823 14.0859L88.602 14.8927L87.2853 15.61L85.9685 16.2375L84.6518 16.9547L84.173 16.7754L83.5745 16.4168L82.4971 16.0582L82.0183 15.9686H80.8213L79.9833 16.1479L78.6666 14.0806L77.5893 12.5565L75.1881 8.96517L73.9911 7.25651L73.632 6.7186V6.44965L73.6249 6.46547Z" fill="#50A3F2"/>
<path d="M36.3338 57.6567H50.4799L50.5997 57.7464V60.3516H45.6847L45.8045 69.5119L45.6847 69.6015H41.129V60.3516H36.3338L36.2141 59.8137V57.836L36.3338 57.6567Z" fill="white"/>
<path d="M72.3013 18.1413L73.7377 18.231L75.8995 18.5L77.4556 18.6793L77.695 19.7551L78.2935 20.6516L77.5753 21.0102L75.66 22.1757L74.3433 22.9826L72.5477 24.148L70.9916 25.0445L69.3157 26.1204L67.6399 27.1065L66.4428 27.9134L65.8443 28.3617V28.541L66.2034 28.8099L65.7246 29.0789L65.1261 28.9892L65.2458 28.6306L65.4852 28.4513L65.3655 28.0031L64.6473 27.7341L64.8867 26.9272L66.6822 22.7083L67.6399 20.2824L67.999 20.1928L68.9566 20.1031L70.1537 19.8342L71.231 19.2963L72.0689 18.3998L72.3083 18.1308L72.3013 18.1413Z" fill="#50A3F2"/>
<path d="M64.9921 3.05339H66.3089L67.9847 3.32235L69.9 4.03957L71.097 4.84643L71.9349 5.8326L72.1744 6.19121L72.0546 6.90843L69.7732 12.9257L69.4141 13.9118V14.4497L69.055 14.3601L67.6186 14.2704L65.2174 8.79112L63.0557 3.84971V3.40145L64.1331 3.1325L64.971 3.04285L64.9921 3.05339Z" fill="#50A3F2"/>
<path d="M39.453 17.8724H39.6924L40.4106 18.8585L41.3683 19.4861L42.4456 19.8447L42.0865 22.1809L41.8471 23.3464L41.2486 23.5257L39.8121 23.7947L38.9742 24.3326L38.7348 24.6912L38.256 24.6015L35.9745 23.705L28.06 20.7412L28.1797 19.5758L27.4615 19.4861L26.9827 19.2172V19.0378L28.06 18.9482L28.1797 19.4861L29.6162 19.2172L36.3337 18.3206L39.453 17.8724Z" fill="#50A3F2"/>
<path d="M76.1387 57.6567H80.5748L80.6945 57.7464V69.5119L80.5748 69.6015H76.1387V57.6567Z" fill="white"/>
<path d="M72.9068 7.09302L73.266 7.45163L77.2232 13.3792L78.4203 15.0879L79.1385 16.2533L79.0188 16.6119L78.4203 17.0602L77.5823 18.0464L75.6671 17.8671L72.6674 17.5085L72.428 17.4188L72.1886 16.2533L71.4704 15.2672L70.3931 14.7293L69.9142 14.4603L70.9916 11.8551L72.6674 7.36725L72.9068 7.09829V7.09302Z" fill="#50A3F2"/>
<path d="M38.2488 27.9292L38.8473 28.0189L39.0867 28.1982V28.4671L37.8897 29.6326L37.0518 30.5291L35.8547 31.7843L34.4183 33.2187L33.8198 33.8463L33.2212 33.6669L32.2636 33.5773L32.1439 33.4876L32.0242 32.4118V30.4342L34.6647 29.3584L38.0235 28.0136L38.2629 27.924L38.2488 27.9292Z" fill="#50A3F2"/>
<path d="M92.8058 31.6102H93.4043L92.9255 31.8792L90.1652 32.8654L85.1306 34.574H84.6518L84.7715 33.2292L84.0533 33.1396L83.9336 32.6913L84.6518 32.6017L84.8912 33.0499L91.7284 31.7948L92.8058 31.6155V31.6102Z" fill="#50A3F2"/>
<path d="M62.4715 61.1584L62.8306 61.3377L64.1473 63.7636L64.6261 64.7498H60.7886L60.6689 64.5705L62.225 61.6067L62.4644 61.1584H62.4715Z" fill="white"/>
<path d="M35.2563 37.0895L36.0942 37.1792L38.4953 37.8068L41.0161 38.524L41.7344 38.7929V39.0619L41.1358 39.2412L40.0585 38.9722L36.4603 37.9861L35.2633 37.5378V37.0895H35.2563Z" fill="white"/>
<path d="M78.7794 35.7448L79.4976 35.9241L79.9764 36.3723L78.8991 36.7309L78.3006 36.9102H77.3429L76.9838 37.1792L76.6247 37.0895L76.505 36.6413L76.6247 36.5516H77.8217L78.7794 35.7448Z" fill="#50A3F2"/>
<path d="M33.5736 33.9465L34.2918 34.0361L34.5312 34.2154L34.0524 34.6637L33.4539 34.574L33.5736 33.9465Z" fill="#50A3F2"/>
<path d="M77.7021 37.0895L78.0612 37.3585L77.9415 37.8068H77.343L77.1036 37.3585L77.7021 37.0895Z" fill="#50A3F2"/>
<path d="M71.3436 37.2689H71.9422L72.1816 37.5378L71.7028 37.8964H71.2239V37.3585L71.3436 37.2689Z" fill="#50A3F2"/>
<path d="M73.9839 40.5016L74.4628 40.6809V41.1291L74.3431 41.2188H73.7445V40.6809L73.9839 40.5016Z" fill="#50A3F2"/>
<path d="M20.0257 35.9241H20.8636L20.9833 36.3723L20.7439 36.462L20.0257 36.2827V35.9241Z" fill="#50A3F2"/>
<path d="M27.2222 20.4775L27.9404 20.5672L27.701 21.1051L27.2222 21.0154L26.8631 20.6568L27.2222 20.4775Z" fill="#50A3F2"/>
<path d="M24.5816 16.8809L24.9407 17.0602L24.821 17.4188L24.4618 17.5085L23.983 17.1499V16.9706L24.5816 16.8809Z" fill="#50A3F2"/>
<path d="M23.2648 32.5067L23.8633 32.5964V32.955L23.3845 33.0446L23.1451 32.955L23.2648 32.5067Z" fill="#50A3F2"/>
<path d="M38.608 27.1224L39.3263 27.212L39.0869 27.5706L38.3686 27.481L38.2489 27.212L38.608 27.1224Z" fill="#50A3F2"/>
<path d="M41.7274 23.6207H42.5653L42.3259 24.0689L41.7274 23.9793V23.6207Z" fill="#50A3F2"/>
</g>
<defs>
<clipPath id="clip0_263_1090">
<rect width="100" height="77.1429" fill="white"/>
</clipPath>
</defs>
</svg>
