<svg width="350" height="270" viewBox="0 0 350 270" fill="none" xmlns="http://www.w3.org/2000/svg">
<g clip-path="url(#clip0_263_1917)">
<path d="M163.667 0H170.789L177.493 1.25513L185.059 4.07916L191.343 2.51025L193.019 2.19647H201.004L207.707 3.4516L213.573 5.64807L218.182 8.47211L219.857 9.09967L223.628 8.15833L226.142 7.84454H232.845L239.13 8.78589L243.319 10.041L247.09 11.9237L251.28 14.7477L255.469 19.1407L267.644 19.7683L276.048 21.3372L284.452 23.8474L291.574 26.9852L299.978 31.692V32.3195L301.654 32.9471L306.263 36.7125L310.033 41.1054L312.547 45.4984L314.642 50.8327L320.088 52.7153L324.697 54.9118L328.887 57.7359L331.819 60.8737L333.914 64.3253L335.171 67.4631L335.59 69.6596V73.7387L334.333 79.719L336.847 80.3466L341.037 83.1706L343.55 85.3671L346.483 89.1325L348.159 92.8979L348.578 94.4668V100.761L347.321 105.154L346.902 109.233L347.74 112.057L350.673 118.665L351.93 123.685V132.176L350.673 138.156L348.578 143.491L346.064 147.884L343.55 151.021L339.361 155.1L334.333 159.18L330.981 161.376L324.697 164.828L317.994 167.338L310.428 169.221L304.981 170.162L301.629 170.476H291.969L283.146 169.534L276.442 167.966L271.415 166.397L264.711 163.573L260.103 160.749L256.751 158.552L255.913 159.493L253.818 163.259L250.885 167.338L246.277 171.731L241.668 175.496L238.735 177.693L231.613 181.458L224.91 183.968L217.787 185.851L210.221 187.42L203.518 188.048H197.233L185.897 186.792L179.193 185.224L174.166 183.655L168.3 181.144L161.597 177.379L155.731 172.986L152.38 169.848L150.285 171.417L146.514 174.555L140.649 177.693L132.664 180.517L128.893 181.458L125.541 182.086L123.865 184.282L121.771 188.989L118.838 192.441L115.067 195.578L110.878 198.402L106.688 200.285L102.917 201.226L110.483 203.423L112.159 204.364L111.74 205.933L107.969 212.855L107.132 213.169L101.266 211.286L95.4005 210.345H88.6971L84.9264 211.286L83.6696 212.541V214.424L85.7644 215.993L93.3304 217.562L101.315 219.13L106.762 220.699L110.951 222.896L112.627 224.465L114.303 227.289L114.722 228.23V232.309L113.465 235.761L110.951 238.585L107.181 241.095L101.734 242.978L97.1257 243.919L94.1929 244.233H86.208L78.223 243.292L71.5196 241.723L67.33 240.154L66.492 238.899L69.0058 234.82L71.1006 231.054L73.6144 231.368L76.9661 232.623L83.6696 234.192L87.0213 234.506H93.7247L97.0764 233.564L98.3333 232.937L98.7523 231.682L97.9143 229.799L94.5626 228.544L79.8742 225.72L74.8467 224.151L71.495 222.268L68.9812 220.072L67.7243 217.875L67.3053 216.306V211.913L68.9812 208.462L71.495 205.952L74.8467 203.755L79.8742 201.872L84.4828 200.931L82.388 199.676L76.1036 196.852L70.657 193.4L68.5622 192.459V193.087H67.3053V192.145L63.9536 192.459H54.2928L47.1704 191.204L40.8859 189.321L36.6963 187.438L32.9256 185.242L29.9929 182.732L25.8033 178.339L22.8705 173.946L21.1947 169.239L20.3567 162.631L16.1671 159.807L13.2343 157.297L9.46366 153.532L6.53092 149.139L4.4361 143.158L4.01713 139.079L4.85506 133.099L6.53092 128.392L9.88263 123.372L12.8154 120.548L14.4912 118.979L9.0447 115.213L5.27403 112.075L2.76024 108.938L1.08439 105.172L0.24646 99.838L0.665424 94.5037L2.34128 90.4245L5.27403 86.6591L10.3016 82.58L14.9102 80.0697L16.1671 79.4422L17.005 72.8343L19.5188 66.2264L23.7084 59.9323L28.317 54.9118L33.3446 50.5189L37.5342 47.3811L45.1002 43.3019L48.033 41.733L51.8037 37.6538L54.7364 34.8298L57.2502 31.0644L61.0209 27.6128L64.3726 25.4163L69.4001 23.2199L78.223 21.0234L84.9264 19.4545L88.2782 16.3167L92.4678 13.1788L98.7523 9.72724L105.037 7.21698L113.022 5.02051L122.264 3.4516L126.453 3.13782H136.114L142.817 3.76538L144.912 4.07916H148.264L153.71 2.51025L157.062 1.25513L163.766 0L163.667 0Z" fill="black"/>
<path d="M77.213 73.5541L79.3078 74.1816L78.0509 77.0057L80.1457 77.6332L82.6595 78.2608H88.944L93.1336 76.6919L96.9043 74.1816L114.525 80.7895L122.51 83.9273L133.428 88.0065L135.104 87.3789L135.523 86.7514L137.199 87.3789L136.78 88.6341H133.428L133.009 92.0857L133.847 95.2235L131.752 96.4786L125.887 98.6751L116.645 102.44L106.984 106.206L83.8918 113.128H82.6349L80.959 110.931L78.4452 109.362L73.8366 108.421H69.647L65.4573 109.362L61.6867 111.872L59.1729 115.638L59.5919 116.893L61.2677 117.207L61.6867 117.52V119.089L59.1729 119.717L62.1056 124.11L65.0384 125.993L70.066 127.875V133.542L68.3901 175.349L67.9711 187.918L67.1332 189.173L63.3625 189.487H54.9586L47.8362 188.232L42.3897 186.663L37.7811 184.467L34.4294 182.27L31.0777 179.132L27.726 175.053L25.6311 170.66L24.7932 166.895L24.3742 162.502L22.6984 160.306L17.2519 156.226L12.6433 151.833L9.71051 147.127L8.45361 143.361V135.498L10.1295 130.164L14.3191 124.184L17.2519 121.36L18.5087 120.418L26.9127 120.105L53.3567 119.477L59.2222 119.163L59.6411 118.222L58.8032 117.908H21.8605L22.6984 116.653L26.888 113.515L30.2397 111.319L50.7936 95.9249L54.1453 93.7284L76.3997 77.0611H77.2376L76.3997 74.237L77.2376 73.6095L77.213 73.5541Z" fill="#50A3F2"/>
<path d="M152.355 97.4384L154.031 97.7521V99.0073L153.612 99.9486L154.869 101.831L160.316 106.852L168.72 115.029L169.139 116.598L164.53 124.774L161.597 130.109L163.273 132.619L161.178 133.56L160.34 132.933V130.736H154.475L149.447 132.305L147.352 133.874L146.933 135.443V136.384H147.771L148.19 137.639L147.771 137.953H145.677L144.839 137.639L144.42 141.091L146.096 144.856L148.609 147.367L153.637 149.877L153.218 154.27L151.123 164.643L150.285 166.212L143.163 166.84L86.5041 170.605L84.4093 171.546L71.8157 185.685H70.9778L71.3967 168.076L72.6536 133.505L73.0726 127.838L78.9381 125.956L81.0329 124.7L83.1277 122.504L84.3846 120.308L84.8036 114.641L94.8834 111.817L106.22 108.365L108.734 107.738L109.153 108.679L109.991 117.483H112.505V119.68L110.41 119.366L109.572 117.483L106.22 118.111L102.868 119.994L100.355 122.818L99.5166 124.387V128.466L100.774 131.604L103.706 134.428L108.734 136.31L112.923 136.624L117.113 135.683L119.627 134.428L121.722 133.173L122.141 131.29L120.884 130.035V129.093H123.817L124.654 128.78V125.642L122.979 122.19L121.722 120.308V118.739L125.073 114.973L130.939 108.993L136.385 103.326L138.899 100.502L138.48 99.2472L136.804 99.561L132.615 103.64L129.682 106.778L125.492 111.171L120.465 116.191L118.37 118.388L116.275 117.76L112.923 117.447L112.505 117.133L112.086 113.367V106.446L121.327 102.68L133.083 97.9736L135.597 97.6598L136.854 98.6012L138.53 97.6598L140.624 97.9736L140.205 100.798L142.3 101.111H148.166L152.355 100.17L151.936 98.915L150.679 97.9736L152.355 97.3461V97.4384Z" fill="#50A3F2"/>
<path d="M312.67 54.3766L316.441 54.6904L321.468 56.8869L324.82 59.0834L328.172 62.535L330.685 66.6141L331.523 69.1244V74.4587L329.847 80.1252L331.942 81.6941L336.132 83.8906L339.484 86.4009L341.997 89.5387L343.673 92.3627L344.511 94.5592V100.54L343.254 104.619L339.903 105.56L307.174 111.854L298.351 113.423L296.256 113.109L292.905 109.971L290.81 109.03H288.715L288.296 109.971H286.62L286.201 107.775H282.431L278.66 108.403L276.146 109.658L273.632 111.854L271.957 113.737L266.929 113.109L237.971 108.089L233.363 107.775L232.525 109.03L230.43 108.716L230.011 107.461L233.782 106.52L232.525 101.813L232.106 100.558L236.714 97.4201L242.58 93.9685L246.769 91.1445L250.959 88.6342L255.568 85.8102L261.014 82.3586L268.137 77.9657L273.164 74.8278L274.421 74.2003L275.259 73.2589L276.935 74.8278L280.287 76.083L281.962 76.3968H288.247L291.599 75.4554L295.788 72.6314L297.883 69.8073L298.302 68.5522V63.8455L297.045 61.3352L299.14 60.0801L306.706 56.3147L309.22 55.3734L307.963 59.1388L304.611 66.688L298.746 80.1991L292.88 94.0239L288.69 103.456L287.434 107.221L288.271 108.163H289.528L292.461 101.241L299.165 85.5333L303.354 75.7877L310.92 58.4927L312.596 54.4136L312.67 54.3766Z" fill="#50A3F2"/>
<path d="M342.047 108.126H342.885V110.322L347.074 120.068L347.912 123.206L348.331 128.872L347.493 134.852L345.817 140.187L343.723 144.58L339.952 149.914L336.6 153.366L331.154 157.759L325.288 160.896L319.004 163.72L312.719 165.603L303.896 167.172L298.031 167.8H293.841L287.557 167.172L281.272 165.917L275.826 164.348L268.703 161.524L257.786 155.23L258.205 151.778L259.88 145.484L261.137 144.543L264.908 144.229L269.936 142.346L272.868 139.522L274.125 137.012L274.544 134.188L274.125 131.678L282.11 128.854L287.557 126.971L287.976 126.343L287.138 126.657L282.11 126.971L283.786 125.716L293.447 122.578H294.704L293.866 123.833L291.352 125.088L293.866 124.775L311.068 118.794L327.013 113.128L335.417 110.304L340.864 108.421L342.121 108.107L342.047 108.126Z" fill="#50A3F2"/>
<path d="M167.463 140.814H169.139L170.396 143.011L176.68 144.266L200.61 148.031L249.703 155.894L252.636 156.522L252.217 158.404L248.865 163.739L245.932 167.19L240.486 172.211L236.296 175.349L228.73 179.114L222.027 181.624L214.461 183.507L206.057 184.762L199.772 185.076L189.274 184.135L180.451 182.252L173.747 179.742L167.044 176.604L162.016 173.152L159.921 171.583L156.57 168.759L154.056 166.563V162.797L156.151 151.483L157.408 149.914L161.597 149.286L165.787 147.404L168.72 144.266L169.139 143.011L166.625 142.383L167.044 141.128L167.463 140.814Z" fill="#50A3F2"/>
<path d="M160.315 67.5739L162.41 67.8877L169.113 72.5944L172.465 74.7909L177.492 78.2425L182.939 82.0078L187.129 84.8319L190.48 87.0284L194.67 89.8524L200.954 94.2453L204.306 96.4418L208.496 99.2658L209.753 100.521L208.077 103.345V107.11H210.591L211.01 108.679L209.334 109.621L209.753 111.19L212.266 113.7L216.037 115.269L217.713 115.582H223.578L227.349 114.327L230.282 112.445L232.796 109.307L262.591 114.327L271.833 115.896V114.014H273.928L274.766 114.955L274.347 116.21L270.995 116.524L272.252 120.603L273.509 122.799L275.604 122.172L277.28 122.486L277.699 123.741L275.185 124.368L274.766 123.741H273.509L270.995 126.251L268.482 126.565L265.549 125.624L263.035 125.31H259.683L255.913 125.937L252.561 127.82L250.047 130.644L246.276 130.33L222.765 125.624L186.685 118.074L178.281 116.192L177.443 115.564L179.119 114.936L187.942 113.368L202.211 110.544L208.077 109.602V108.033L203.887 108.347L175.348 114.014L171.578 114.327L168.226 111.503L162.779 106.169L157.333 101.149L155.238 98.9521L156.076 97.6969L158.171 94.2453L158.59 92.9902V90.7937L157.333 87.6559L154.819 84.8319L152.724 83.5767L148.954 82.3216L149.792 77.3011L151.048 70.3795L151.886 69.7519L156.076 69.1243L160.266 67.5554L160.315 67.5739Z" fill="#50A3F2"/>
<path d="M165.762 2.82402L171.209 3.13781L177.074 4.39293L182.102 6.58941L183.778 7.53075L185.873 7.21697L191.738 5.64806L194.252 5.33428H198.441L205.145 6.27562L210.172 7.84453L213.943 9.72722L215.619 11.2961L214.781 12.5513L207.215 18.2178L203.863 20.4143L196.741 25.7486H195.903V26.3761L192.551 28.5726L178.282 39.2596L174.93 41.4561L168.227 46.4766H167.389V47.1042H166.551V47.7317H165.713L164.875 48.9869L161.942 50.8695L161.523 51.4971L159.01 51.1833L156.915 50.242L152.306 49.6144L151.887 48.3593L148.116 14.4155L147.279 7.49384L148.535 6.86627L152.306 6.23871L159.01 3.72845L161.942 3.10089L165.713 2.78711L165.762 2.82402Z" fill="#50A3F2"/>
<path d="M82.6837 23.2568L84.3596 23.5706V59.0833L80.5889 60.0246L77.6561 61.2798L75.1424 63.4762L73.8855 65.0451L73.0475 68.8105L75.9803 69.7519V71.6346L74.7234 71.9483L73.4665 70.6932V70.0656L60.454 71.9483L34.4289 76.3413L23.0923 78.224H20.5785V75.7137L21.8354 71.007L24.3492 65.6727L27.7009 60.966L31.8905 56.573L35.6612 53.4352L38.5939 50.925L43.2025 48.1009L47.3922 45.9044L50.7439 44.3355L54.5146 39.9426L57.4473 37.1186L61.218 32.4118L65.8266 28.6464L71.6921 26.1362L79.2581 24.2535L82.6098 23.3121L82.6837 23.2568Z" fill="#50A3F2"/>
<path d="M171.652 117.557L175.842 117.871L236.69 130.755L247.608 132.951L248.865 133.892L249.284 137.03L250.96 140.168L253.473 142.365L257.244 144.247L256.825 147.071L254.73 153.993L253.473 154.621L244.651 153.052L182.126 142.992L171.209 141.423L170.371 141.109L169.114 136.717L166.6 133.579L163.667 131.696L164.924 128.872L169.114 121.95L171.209 117.871L171.628 117.557H171.652Z" fill="#50A3F2"/>
<path d="M216.974 13.511L218.231 13.8248L221.163 20.4327L227.867 36.1403L232.894 47.4549L233.732 50.2789H234.57V50.9065L230.799 52.7892L229.543 53.1029L226.61 57.4959L225.772 59.0648H165.343L164.505 56.2407L162.829 53.7305V52.7892L166.18 50.5927L172.465 46.1997L183.383 38.0229L186.734 35.8265L197.652 27.6497L201.004 25.4532L216.949 13.511H216.974Z" fill="#50A3F2"/>
<path d="M128.425 6.29407H135.547L142.669 6.92163L144.345 7.54919L144.764 8.49054L148.116 37.4138L149.373 49.356L147.278 50.2973L142.669 52.18L140.575 51.8663L135.547 48.7284L128.844 44.9631L121.278 40.5701L113.293 36.1772L107.008 32.4118L100.305 28.6464L94.8583 25.5086L88.5739 22.057L89.4118 20.4881L92.7635 17.3503L96.9531 14.84L103.238 11.7022L112.479 8.56437L120.883 6.99546L128.449 6.3679L128.425 6.29407Z" fill="#50A3F2"/>
<path d="M165.343 61.2982H226.192L227.867 64.7498L230.381 67.5739L232.476 68.829L234.152 70.0841L232.476 74.7908L227.867 85.1641L224.097 94.596L223.678 95.8511L225.354 97.1063V98.6752L223.259 98.9889L222.84 98.6752V96.1649L216.136 96.7925L212.785 98.0476L213.204 99.3027L214.042 100.872L213.204 101.499L211.109 101.185V98.3614L209.014 96.4787L205.662 94.2822L200.216 90.5168L195.607 87.6928L192.675 85.4963L189.323 83.2999L184.295 79.8483L180.106 77.0242L176.754 74.8278L171.726 71.3761L168.375 69.1797L164.185 66.6694L163.347 65.1005L165.442 61.3351L165.343 61.2982Z" fill="#50A3F2"/>
<path d="M211.528 201.799H227.054L230.406 206.819L236.271 216.879L242.975 228.193L249.259 238.88L251.354 242.332L250.935 243.587H235.409L234.152 242.018L230.8 235.724L229.962 235.41L208.57 235.724L207.314 236.038L204.381 241.372L203.124 243.569H187.179L186.76 242.941L190.111 237.607L192.206 233.841L200.191 220.33L208.595 206.192L211.528 201.799Z" fill="black"/>
<path d="M71.347 72.2991H73.8608L75.1177 73.868L75.5367 74.4955L74.2798 76.0645L69.2522 79.5161L55.8207 89.5755H54.9828L54.5638 90.5169L51.2121 92.7133L32.3341 106.852L28.9824 109.048L18.9026 116.598L17.2268 116.284L13.8751 114.401L10.5233 111.891L6.75267 108.126L4.65786 104.36L4.23889 102.164V96.1834L5.91475 92.1042L8.42853 88.6526L12.6182 85.201L17.6457 82.377L20.9974 80.8081L32.3341 78.9254L57.9402 74.5325L71.3717 72.336L71.347 72.2991Z" fill="#50A3F2"/>
<path d="M152.355 97.4385L154.03 97.7523V99.0074L153.611 99.9488L154.868 101.831L160.315 106.852L168.719 115.029L169.138 116.598L164.529 124.774L161.596 130.109L163.272 132.619L161.177 133.56L160.34 132.933V130.736H154.474L149.446 132.305L147.352 133.874L146.933 135.443V136.384H147.771L148.19 137.639L147.771 137.953H145.676L144 137.326L140.229 136.384L127.636 132.933L123.446 131.364V129.481L124.703 128.854V125.716L123.027 122.264L121.77 120.381V118.813L125.122 115.047L130.987 109.067L136.434 103.4L138.948 100.576L138.529 99.3212L136.853 99.635L132.663 103.714L129.731 106.852L125.541 111.245L120.513 116.265L118.418 118.462L116.324 117.834L112.972 117.521L112.553 117.207L112.134 113.441V106.52L121.376 102.754L133.132 98.0476L135.645 97.7338L136.902 98.6752L138.578 97.7338L140.673 98.0476L140.254 100.872L142.349 101.185H148.214L152.404 100.244L151.985 98.989L150.728 98.0476L152.404 97.42L152.355 97.4385Z" fill="#50A3F2"/>
<path d="M87.2927 24.1982L88.9685 24.8258L95.672 28.5912L101.537 32.0428L106.984 35.1806L112.012 38.0046L117.458 41.1425L125.024 45.5354L132.146 49.6146L138.85 53.3799L140.107 54.3213L138.85 57.4591L138.431 60.2831L135.498 60.9107L108.216 64.6761L98.5554 65.9312L94.7848 61.8521L92.6899 60.5969L87.2434 59.028V24.1982H87.2927Z" fill="#50A3F2"/>
<path d="M145.627 168.482H147.303L146.465 169.737L143.532 172.248L138.923 175.072L132.22 177.582L126.774 178.523L123.422 179.151L122.165 180.092L119.651 183.544L117.975 187.937L115.043 191.388L111.691 194.212L107.082 196.723L102.893 198.292L97.865 199.233H94.0944L87.3909 197.978L81.5255 195.781L75.66 192.644L71.8893 190.133L72.3082 188.878L76.0789 184.171L82.3634 177.25L86.1341 172.857L88.2289 172.229L112.997 170.66L145.725 168.464L145.627 168.482Z" fill="#50A3F2"/>
<path d="M257.687 22.6292H263.553L271.538 23.5706L276.565 24.8257L286.226 28.2773L291.254 30.7876L297.119 34.2392L298.795 35.4943V36.1218H299.633L302.566 38.6321L305.08 41.4561L308.431 46.4766L309.688 49.3007L310.107 52.1247L305.499 54.635L300.89 56.8314L296.281 59.3417L294.605 58.7141L292.511 57.459L288.74 56.2039L287.064 55.8901H282.874L279.942 56.5177L275.333 49.2822L271.562 43.9479L263.159 31.3782L258.969 25.3979L257.712 23.5152V22.5739L257.687 22.6292Z" fill="#50A3F2"/>
<path d="M127.168 201.799H176.68L177.099 202.112V211.231H159.897L160.316 243.292L159.897 243.606H143.951V211.231H127.168L126.749 209.348V202.426L127.168 201.799Z" fill="black"/>
<path d="M253.055 63.4947L258.082 63.8085L265.648 64.7498L271.095 65.3774L271.933 69.1427L274.027 72.2806L271.514 73.5357L264.81 77.6149L260.202 80.4389L253.917 84.5181L248.471 87.6559L242.605 91.4213L236.74 94.8729L232.55 97.6969L230.455 99.2658V99.8934L231.712 100.835L230.036 101.776L227.941 101.462L228.36 100.207L229.198 99.5796L228.779 98.0107L226.266 97.0693L227.103 94.2453L233.388 79.4791L236.74 70.9885L237.996 70.6747L241.348 70.361L245.538 69.4196L249.309 67.5369L252.241 64.3991L253.079 63.4578L253.055 63.4947Z" fill="#50A3F2"/>
<path d="M227.472 10.687H232.081L237.947 11.6283L244.65 14.1386L248.84 16.9626L251.772 20.4142L252.61 21.6694L252.191 24.1796L244.206 45.2399L242.949 48.6915V50.5742L241.693 50.2604L236.665 49.9466L228.261 30.769L220.695 13.4741V11.9052L224.466 10.9639L227.398 10.6501L227.472 10.687Z" fill="#50A3F2"/>
<path d="M138.085 62.5533H138.923L141.437 66.0049L144.789 68.2014L148.56 69.4565L147.303 77.6333L146.465 81.7125L144.37 82.3401L139.342 83.2814L136.41 85.1641L135.572 86.4192L133.896 86.1054L125.911 82.9676L98.21 72.5944L98.629 68.5152L96.1152 68.2014L94.4393 67.2601V66.6325L98.21 66.3187L98.629 68.2014L103.657 67.2601L127.168 64.1223L138.085 62.5533Z" fill="#50A3F2"/>
<path d="M266.486 201.799H282.012L282.431 202.112V243.292L282.012 243.605H266.486V201.799Z" fill="black"/>
<path d="M255.174 24.8256L256.431 26.0807L270.281 46.8272L274.471 52.8075L276.985 56.8867L276.566 58.1418L274.471 59.7107L271.538 63.1623L264.835 62.5348L254.336 61.2796L253.498 60.9658L252.66 56.8867L250.146 53.4351L246.376 51.5524L244.7 50.611L248.471 41.4929L254.336 25.7854L255.174 24.844V24.8256Z" fill="#50A3F2"/>
<path d="M133.871 97.7522L135.966 98.066L136.804 98.6936V99.6349L132.614 103.714L129.681 106.852L125.492 111.245L120.464 116.265L118.369 118.462L116.274 117.834L112.923 117.52L112.504 117.207L112.085 113.441V106.52L121.327 102.754L133.082 98.0475L133.92 97.7338L133.871 97.7522Z" fill="#50A3F2"/>
<path d="M324.82 110.636H326.915L325.239 111.577L315.578 115.029L297.957 121.009H296.281L296.7 116.302L294.187 115.988L293.768 114.42L296.281 114.106L297.119 115.675L321.05 111.282L324.82 110.654V110.636Z" fill="#50A3F2"/>
<path d="M218.65 214.055L219.907 214.682L224.516 223.173L226.192 226.624H212.76L212.341 225.997L217.788 215.624L218.626 214.055H218.65Z" fill="#A0D0DA"/>
<path d="M123.397 129.813L126.33 130.127L134.734 132.324L143.556 134.834L146.07 135.775V136.717L143.975 137.344L140.205 136.403L127.611 132.951L123.422 131.382V129.813H123.397Z" fill="black"/>
<path d="M275.728 125.107L278.242 125.734L279.918 127.303L276.147 128.558L274.052 129.186H270.7L269.443 130.127L268.187 129.813L267.768 128.244L268.187 127.931H272.376L275.728 125.107Z" fill="#50A3F2"/>
<path d="M117.507 118.813L120.021 119.126L120.859 119.754L119.183 121.323L117.089 121.009L117.507 118.813Z" fill="#50A3F2"/>
<path d="M271.957 129.813L273.214 130.755L272.795 132.324H270.7L269.863 130.755L271.957 129.813Z" fill="#50A3F2"/>
<path d="M249.703 130.441H251.798L252.636 131.382L250.96 132.637H249.284V130.755L249.703 130.441Z" fill="#50A3F2"/>
<path d="M258.944 141.756L260.62 142.383V143.952L260.201 144.266H258.106V142.383L258.944 141.756Z" fill="#50A3F2"/>
<path d="M70.09 125.734H73.0227L73.4417 127.303L72.6037 127.617L70.09 126.989V125.734Z" fill="#50A3F2"/>
<path d="M95.2778 71.6714L97.7915 71.9852L96.9536 73.8679L95.2778 73.5541L94.0209 72.2989L95.2778 71.6714Z" fill="#50A3F2"/>
<path d="M86.0355 59.0833L87.2924 59.7108L86.8734 60.9659L85.6165 61.2797L83.9407 60.0246V59.397L86.0355 59.0833Z" fill="#50A3F2"/>
<path d="M81.4269 113.774L83.5217 114.087V115.342L81.8459 115.656L81.0079 115.342L81.4269 113.774Z" fill="#50A3F2"/>
<path d="M135.128 94.9282L137.642 95.242L136.804 96.4971L134.29 96.1834L133.871 95.242L135.128 94.9282Z" fill="#50A3F2"/>
<path d="M146.046 82.6722H148.979L148.141 84.2411L146.046 83.9274V82.6722Z" fill="#50A3F2"/>
</g>
<defs>
<clipPath id="clip0_263_1917">
<rect width="350" height="270" fill="white"/>
</clipPath>
</defs>
</svg>
