<svg width="222" height="64" viewBox="0 0 222 64" fill="none" xmlns="http://www.w3.org/2000/svg">
<g filter="url(#filter0_dd_175_142)">
<g clip-path="url(#clip0_175_142)">
<rect width="10.9728" height="11.3434" transform="translate(105.465 2.02441)" fill="#EAECED"/>
<g opacity="0.5" filter="url(#filter1_d_175_142)">
<path d="M107.368 7.02688C107.433 6.69548 107.579 6.49154 107.587 6.47454C107.644 6.38957 107.757 6.37257 107.839 6.43205C107.92 6.49154 107.936 6.60201 107.879 6.68698C107.79 6.82294 107.668 7.19684 107.725 7.51974C107.782 7.84265 107.879 8.10608 108.391 8.20805C108.716 8.26753 108.748 8.53096 108.772 8.7264C108.797 8.93884 108.829 9.20226 109.146 9.49118C109.268 9.60165 109.43 9.68663 109.592 9.7801C109.674 9.82259 109.763 9.87357 109.844 9.92456C109.974 9.63564 110.08 9.15128 110.072 8.86236C110.063 8.49697 109.942 8.15706 109.722 7.86814L109.674 7.80866L109.69 7.73218C109.714 7.59622 109.73 7.46026 109.722 7.3243C109.657 7.34979 109.576 7.35829 109.487 7.35829C109.138 7.35829 108.87 7.21383 108.683 6.9844C108.366 6.59351 108.439 6.15163 108.456 5.9222C108.472 5.69276 108.488 5.51432 108.513 5.25089C108.553 4.8515 108.602 4.35015 108.569 4.1717C108.448 3.62785 108.18 3.63635 108.082 3.63635C107.985 3.63635 107.895 3.55987 107.895 3.4664C107.895 3.36443 107.969 3.28795 108.074 3.27945C108.326 3.27095 108.772 3.36443 108.935 4.09522C108.983 4.32465 108.935 4.81751 108.886 5.28488C108.862 5.53981 108.837 5.72675 108.829 5.93919C108.821 6.15163 108.789 6.53402 108.983 6.76346C109.105 6.90792 109.276 6.9844 109.519 7.00139C109.609 7.00989 109.804 6.91642 109.909 6.72947C109.974 6.58501 109.998 6.43205 109.998 6.2706C109.99 6.04117 109.909 5.82023 109.763 5.63328L109.674 5.52281L109.763 5.41234C109.933 5.2084 110.023 4.94498 110.015 4.68155C110.007 4.46062 109.933 4.24818 109.804 4.06973L109.722 3.95926L109.812 3.84879C109.974 3.64485 110.063 3.38992 110.055 3.13499C110.039 2.49767 109.617 2.0643 109.032 2.08129C108.626 2.09829 108.326 2.26824 108.163 2.67612C107.757 2.56566 107.278 2.93105 107.173 3.30494C107.059 3.68734 107.132 4.1462 107.587 4.71554C107.652 4.80052 107.725 4.877 107.806 4.94498C107.879 5.01296 107.887 5.12343 107.822 5.1999C107.79 5.24239 107.741 5.25939 107.692 5.25939C107.644 5.25939 107.603 5.24239 107.563 5.2169C107.473 5.14042 107.384 5.04695 107.303 4.94498C106.97 4.5286 106.856 4.06973 106.816 3.75532C106.117 4.25667 106.028 5.16591 106.345 5.67577C105.939 6.28759 106.572 7.06937 107.368 7.02688Z" fill="#FF9D9F"/>
</g>
<path opacity="0.5" d="M109.422 10.086C109.235 10.001 109.056 9.89056 108.902 9.7461C108.496 9.37221 108.447 9.00681 108.423 8.76888C108.399 8.57344 108.39 8.57344 108.334 8.55644C108.033 8.49696 107.83 8.40348 107.692 8.26752C107.514 8.3525 107.343 8.38649 107.181 8.38649C106.71 8.40348 106.352 8.17405 106.328 8.15705C106.247 8.10607 106.223 7.9871 106.279 7.91062C106.336 7.83415 106.45 7.80865 106.531 7.85964C106.547 7.86814 106.994 8.14856 107.473 7.97011C107.424 7.86814 107.335 7.6472 107.343 7.39227C106.572 7.41776 105.865 6.9419 105.833 6.14313C104.842 7.67269 106.02 9.10028 107.376 9.50817C107.741 9.61864 108.001 10.001 108.001 10.3919C108.001 10.4599 107.993 10.5619 107.952 10.6808C108.098 10.7063 108.269 10.7573 108.431 10.8423C108.39 10.5704 108.423 10.3409 108.423 10.3239C108.439 10.222 108.529 10.154 108.634 10.171C108.732 10.188 108.805 10.273 108.788 10.3749C108.788 10.3834 108.707 10.9528 108.943 11.2162C109.073 11.3606 109.194 11.5986 109.235 11.8535C109.251 11.9555 109.178 12.0404 109.081 12.0574H109.064C108.975 12.0574 108.894 11.998 108.878 11.9045C108.772 11.1397 108.017 11.0292 107.749 11.0037C107.627 11.1312 108.009 11.4541 107.757 11.5391C107.741 11.5476 107.717 11.5476 107.7 11.5476C107.619 11.5476 107.546 11.5051 107.522 11.4286C107.489 11.3351 106.978 11.0292 107.075 11.0037C107.44 10.8763 107.635 10.6553 107.635 10.3834C107.635 10.1455 107.465 9.89906 107.254 9.83108C106.499 9.58465 105.946 9.19376 105.605 8.64991C105.167 9.85657 106.117 10.3749 106.734 10.2984C106.832 10.2899 106.929 10.3579 106.937 10.4514C106.945 10.5534 106.88 10.6383 106.775 10.6553C106.726 10.6638 107.238 10.8678 107.189 10.8678C106.978 10.8763 106.791 10.8423 106.629 10.7828C106.482 11.4456 107.14 12.5588 108.326 12.1084C108.472 12.9837 109.706 13.3831 110.42 12.5588C111.119 11.7515 110.071 10.3749 109.422 10.086Z" fill="#FF9D9F"/>
<path opacity="0.5" d="M116.396 7.81891C116.413 8.18601 116.12 8.77914 115.909 9.19892C115.601 9.8099 115.251 10.4914 114.951 11.076C114.423 12.1416 113.514 12.4297 112.434 12.8138C112.02 12.9532 111.378 13.2242 111.184 12.9098C111.094 12.7348 111.102 12.5521 111.094 12.3158C111.127 10.0631 111.021 4.68416 111.135 2.33543C111.224 1.98618 111.565 2.05586 111.866 2.11704C112.369 2.2394 112.913 2.44844 113.335 2.7807C113.985 3.305 114.383 4.42243 114.821 5.20846C115.04 5.64523 115.82 6.27405 116.031 6.70148C116.258 7.1646 116.396 7.48751 116.396 7.81891Z" fill="#FF9D9F" stroke="#FF9D9F" stroke-width="0.365761" stroke-miterlimit="10"/>
<g opacity="0.5">
<path d="M107.562 13.2939C107.546 13.3025 107.513 13.3471 107.497 13.312L107.562 13.2939Z" fill="#FF9D9F"/>
<path d="M107.562 13.2939C107.546 13.3025 107.513 13.3471 107.497 13.312" stroke="#FF9D9F" stroke-width="0.365761" stroke-miterlimit="10"/>
</g>
<path opacity="0.1" d="M114.147 5.92568V5.92313H114.139L114.05 4.30349C114.09 4.29499 114.123 4.2593 114.131 4.21512C114.139 4.16158 114.115 4.1089 114.066 4.09105L114.123 3.7367C114.115 3.7282 114.107 3.71036 114.099 3.69251L114.034 4.0817C114.017 4.0817 114.001 4.0817 113.985 4.0902L113.189 2.77053L113.295 2.7C113.287 2.6915 113.278 2.6915 113.27 2.68215L113.173 2.74418L113.051 2.53174C113.035 2.52325 113.01 2.5054 112.994 2.49605L113.149 2.75268L111.809 3.62878C111.809 3.62878 111.809 3.62028 111.801 3.62028L112.678 2.3448C112.669 2.3363 112.653 2.3363 112.645 2.32695L111.784 3.59309C111.776 3.58459 111.768 3.58459 111.752 3.58459H111.719L111.533 2.80537L112.531 2.28277C112.515 2.27427 112.507 2.27427 112.491 2.26492L111.516 2.76968L111.419 2.37199C111.452 2.36349 111.484 2.3278 111.492 2.29296V2.28447L112.337 2.18674C112.328 2.17825 112.312 2.1689 112.296 2.1604L111.484 2.25812C111.476 2.21394 111.443 2.1791 111.403 2.16975C111.346 2.16125 111.297 2.19609 111.289 2.25812C111.281 2.29381 111.289 2.32015 111.305 2.3465L111.062 2.64731V2.70085L111.33 2.37369C111.338 2.38219 111.354 2.39153 111.37 2.39153H111.387L111.484 2.79942L111.054 3.02121V3.0569L111.492 2.82661L111.679 3.59734C111.655 3.60584 111.638 3.62368 111.63 3.65088L111.037 3.44778V3.48347L111.614 3.67807C111.606 3.7401 111.638 3.79364 111.695 3.80213H111.703L111.752 5.11246L111.793 6.32591H111.784L111.029 4.43945V4.52783L111.76 6.34376C111.736 6.3616 111.711 6.38795 111.711 6.42279C111.703 6.48482 111.736 6.53835 111.784 6.54685L111.598 7.76031C111.549 7.76031 111.508 7.796 111.5 7.84868C111.492 7.91071 111.525 7.96425 111.581 7.97275L111.849 10.036C111.817 10.0445 111.784 10.0801 111.776 10.1243C111.768 10.16 111.784 10.1949 111.801 10.2221L111.037 11.2673C111.037 11.2851 111.046 11.2936 111.046 11.3114L111.825 10.2407C111.833 10.2492 111.841 10.2492 111.857 10.2586H111.898L112.134 10.8959L111.037 11.4627V11.5069L112.142 10.9401L112.743 12.5869C112.734 12.5954 112.718 12.6048 112.71 12.6226L111.046 11.7108V11.7465L112.702 12.6498V12.6677C112.695 12.6923 112.701 12.7161 112.715 12.7399C112.777 12.7118 112.839 12.6923 112.907 12.6847C112.905 12.6507 112.889 12.6184 112.856 12.5971L113.749 10.1974H113.757C113.814 10.2059 113.863 10.1711 113.871 10.109C113.879 10.047 113.847 9.99347 113.79 9.98497H113.741L112.986 8.16904C113.01 8.15119 113.027 8.12485 113.035 8.09851C113.043 8.05432 113.027 8.01948 113.002 7.99229L114.004 6.25283L112.994 7.97954C112.986 7.97954 112.978 7.97105 112.978 7.97105C112.954 7.96255 112.929 7.97105 112.913 7.97954L112.458 7.32438L114.074 6.11093L114.082 6.11942L114.075 6.13217C114.083 6.13217 114.09 6.14067 114.099 6.14067C114.155 6.14916 114.204 6.11432 114.212 6.05229C114.245 6.00811 114.212 5.94607 114.147 5.92823V5.92568ZM113.173 2.80707L113.969 4.12674C113.96 4.13524 113.944 4.15308 113.944 4.17093L111.841 3.7282C111.841 3.71036 111.841 3.69251 111.833 3.68402L113.173 2.80792V2.80707ZM111.833 3.75455L113.936 4.19727C113.936 4.22361 113.944 4.24146 113.952 4.2678L113.165 5.07337L111.825 3.78089C111.825 3.77239 111.825 3.76304 111.833 3.75455ZM111.752 3.82508C111.768 3.82508 111.784 3.81658 111.801 3.79873L113.14 5.09122L111.89 6.3667C111.874 6.3582 111.857 6.34036 111.841 6.34036L111.752 3.82593V3.82508ZM111.833 6.5613C111.849 6.5613 111.866 6.5528 111.882 6.54345L112.41 7.30484L111.711 7.83678C111.703 7.81044 111.679 7.7926 111.646 7.78325L111.833 6.5613ZM111.914 10.0504H111.898L111.793 9.26183L111.63 7.99569H111.646L112.54 8.87179L111.939 10.0581C111.931 10.0581 111.922 10.0581 111.914 10.0496V10.0504ZM113.709 10.0232C113.701 10.0317 113.701 10.0496 113.693 10.0674V10.0759L111.996 10.1464C111.987 10.1201 111.979 10.0929 111.955 10.0759L112.556 8.88963L113.709 10.0232ZM111.947 10.2535C111.971 10.2357 111.987 10.2093 111.996 10.183V10.1745L113.465 10.1124L113.684 10.1039V10.1124L112.174 10.8917L111.947 10.2543V10.2535ZM112.84 12.5733C112.824 12.5648 112.807 12.5648 112.791 12.5733L112.19 10.9172L113.701 10.1379C113.709 10.1558 113.717 10.1643 113.733 10.1736L112.84 12.5733ZM112.921 8.17244C112.929 8.17244 112.929 8.18094 112.937 8.18094H112.978L113.733 9.98667L113.725 9.99602L112.572 8.86329L112.921 8.17244ZM112.548 8.8361L111.671 7.97784C111.679 7.96935 111.687 7.96935 111.687 7.96L112.337 8.03053L112.848 8.08406C112.848 8.11975 112.864 8.1461 112.889 8.16309L112.548 8.8361ZM112.872 8.00249C112.872 8.01098 112.864 8.02883 112.856 8.04667V8.04837L112.337 7.99484L111.703 7.93281C111.703 7.92686 111.706 7.92091 111.711 7.91496V7.87927L112.418 7.34732L112.872 8.00249ZM112.426 7.29634L111.898 6.52561C111.906 6.50776 111.914 6.48992 111.922 6.47207V6.45423L114.034 6.06504C114.034 6.07099 114.036 6.07694 114.042 6.08288L112.426 7.29634ZM114.034 6.01235V6.0387L111.922 6.42789C111.922 6.41939 111.914 6.41004 111.914 6.40154L113.165 5.11756L114.05 5.97666C114.042 5.98516 114.034 6.00301 114.034 6.01235ZM114.066 5.95032L113.181 5.09122L113.969 4.28565C113.977 4.29414 113.993 4.30349 114.009 4.30349H114.017L114.107 5.92313C114.099 5.93163 114.082 5.94097 114.066 5.94947V5.95032Z" fill="#FF9D9F"/>
<g opacity="0.1">
<path opacity="0.5" d="M114.152 8.36016L116.069 7.58433L116.394 8.20805C116.4 8.19785 116.406 8.18851 116.413 8.17831L116.093 7.57413L116.347 7.33705C116.347 7.3277 116.339 7.31665 116.339 7.29711L116.068 7.50445L115.748 6.89517C115.765 6.87393 115.781 6.85354 115.789 6.82295V6.8017L116.117 6.76006L116.093 6.72862L115.782 6.77026C115.774 6.72862 115.741 6.68783 115.7 6.67764C115.642 6.66744 115.593 6.70908 115.585 6.78131L113.807 6.70908C113.799 6.65809 113.766 6.61645 113.725 6.60541C113.667 6.59521 113.619 6.63685 113.61 6.70908C113.602 6.75072 113.61 6.78131 113.627 6.81275L112.914 7.82566C112.906 7.81546 112.889 7.81546 112.881 7.80442C112.824 7.79422 112.775 7.83586 112.767 7.90809C112.759 7.98032 112.791 8.0432 112.849 8.05255H112.898L114.086 11.4737C114.062 11.4949 114.037 11.5247 114.037 11.5663C114.029 11.6385 114.061 11.7014 114.111 11.7108L114.055 12.1305C114.067 12.1246 114.079 12.1195 114.091 12.1144L114.144 11.7201C114.16 11.7201 114.176 11.7099 114.193 11.6989L114.341 11.947C114.349 11.9368 114.349 11.9257 114.357 11.9155L114.218 11.6785L114.242 11.6164V11.5952L114.614 11.6776C114.621 11.6666 114.629 11.6555 114.637 11.6445L114.242 11.5637C114.242 11.5535 114.234 11.5425 114.234 11.5323L114.902 11.2697C114.906 11.2459 114.913 11.2221 114.92 11.2L114.218 11.5017C114.202 11.4915 114.185 11.4703 114.168 11.4703L114.078 8.52416C114.094 8.52416 114.111 8.51396 114.128 8.49272L115.629 9.83364C115.636 9.82514 115.643 9.81664 115.651 9.80814L114.145 8.47148C114.145 8.46128 114.153 8.45023 114.153 8.44003L116.059 8.99578C116.064 8.98473 116.069 8.97453 116.074 8.96433L114.161 8.40859C114.161 8.38735 114.161 8.36696 114.153 8.35761L114.152 8.36016ZM113.816 6.76261V6.75072L115.594 6.82295V6.84419L113.841 7.32005L113.743 6.85524C113.775 6.84504 113.809 6.80425 113.817 6.76261H113.816ZM114.004 8.26923C113.98 8.27943 113.964 8.30067 113.956 8.33127L112.972 7.93868C112.972 7.91743 112.972 7.89704 112.964 7.88769L113.825 7.37104L114.005 8.26923H114.004ZM113.652 6.83314C113.66 6.84249 113.676 6.85354 113.692 6.85354H113.709L113.807 7.3294L112.938 7.84605C112.938 7.84605 112.938 7.83586 112.93 7.83586L113.651 6.83314H113.652ZM114.119 11.4533H114.111L112.923 8.03215C112.939 8.02195 112.955 8.00071 112.963 7.97012L113.947 8.36271C113.939 8.43494 113.971 8.49782 114.029 8.50717H114.037L114.077 10.0367L114.118 11.4533H114.119ZM114.094 8.27943C114.086 8.26923 114.078 8.26923 114.062 8.26923H114.029L113.841 7.35999L115.603 6.88413L115.611 6.89433L114.095 8.27943H114.094ZM114.127 8.31087L115.643 6.92577C115.651 6.93596 115.659 6.93596 115.675 6.93596C115.692 6.94616 115.716 6.93596 115.733 6.92577L116.053 7.53504L114.128 8.31087H114.127Z" fill="#FF9D9F"/>
</g>
</g>
<g opacity="0.6">
<path d="M14.4585 59.8089C12.1807 58.8062 10.3872 57.405 9.0912 55.6181C7.7952 53.8312 7.12756 51.7614 7.0752 49.4217H13.1756C13.385 51.44 14.236 53.137 15.7152 54.5125C17.1945 55.888 19.3676 56.5822 22.2214 56.5822C25.0753 56.5822 27.0913 55.9137 28.6622 54.5768C30.2331 53.2398 31.0186 51.5172 31.0186 49.4217C31.0186 47.7762 30.5604 46.4393 29.6309 45.4108C28.7015 44.3824 27.5626 43.5982 26.1749 43.0711C24.7873 42.5312 22.9284 41.9656 20.5851 41.3485C17.692 40.6029 15.3749 39.8701 13.6469 39.1245C11.9058 38.3789 10.4265 37.2219 9.18284 35.6407C7.95229 34.0595 7.32392 31.9255 7.32392 29.2515C7.32392 26.9119 7.92611 24.8293 9.14357 23.0167C10.361 21.204 12.0629 19.8028 14.2621 18.8258C16.4614 17.8359 18.988 17.3474 21.8287 17.3474C25.9393 17.3474 29.2906 18.3501 31.9088 20.3684C34.527 22.3867 36.0062 25.0607 36.3335 28.3902H30.0499C29.8404 26.7447 28.9633 25.2921 27.4055 24.0451C25.8607 22.7853 23.8055 22.1682 21.2527 22.1682C18.8702 22.1682 16.9196 22.7724 15.4141 23.9937C13.9087 25.2021 13.1494 26.899 13.1494 29.0844C13.1494 30.6528 13.5945 31.9255 14.4978 32.9153C15.4011 33.9052 16.5138 34.6508 17.8229 35.1651C19.1451 35.6793 20.9909 36.2706 23.3865 36.9262C26.2797 37.7104 28.5968 38.4818 30.364 39.2402C32.1182 39.9987 33.6368 41.1685 34.8935 42.7626C36.1502 44.3438 36.7786 46.4907 36.7786 49.216C36.7786 51.3115 36.2157 53.2912 35.0768 55.1424C33.951 56.9936 32.2753 58.4977 30.0499 59.6418C27.8244 60.7988 25.2062 61.3644 22.1953 61.3644C19.1843 61.3644 16.7232 60.8631 14.4323 59.8475L14.4585 59.8089Z" fill="#E1D4C1"/>
<path d="M52.1868 31.694V51.62C52.1868 53.2655 52.5403 54.4225 53.2603 55.1038C53.9672 55.7851 55.2108 56.1194 56.965 56.1194H61.1803V60.8759H56.0225C52.8414 60.8759 50.4457 60.156 48.8617 58.7162C47.2646 57.2764 46.4792 54.911 46.4792 51.62V31.694H42.0151V27.0661H46.4792V18.5558H52.1999V27.0661H61.1803V31.694H52.1999H52.1868Z" fill="#E1D4C1"/>
<path d="M68.0918 34.7536C69.5188 32.144 71.4693 30.1128 73.9697 28.673C76.4701 27.2332 79.2323 26.5133 82.2955 26.5133C85.3588 26.5133 87.9247 27.1561 90.1501 28.4288C92.3756 29.7015 94.0251 31.3084 95.1116 33.2367V27.0661H100.898V60.8759H95.1116V54.5767C93.9858 56.5565 92.297 58.1891 90.0585 59.4875C87.8199 60.7859 85.2148 61.4287 82.2301 61.4287C79.2453 61.4287 76.4046 60.6831 73.9304 59.2047C71.4562 57.7263 69.5057 55.6437 68.0918 52.9698C66.6649 50.2959 65.958 47.2491 65.958 43.8424C65.958 40.4357 66.6649 37.3504 68.0918 34.7408V34.7536ZM93.5407 37.2476C92.4934 35.3578 91.0796 33.9052 89.2992 32.9025C87.5188 31.8997 85.5552 31.3855 83.4214 31.3855C81.2875 31.3855 79.337 31.874 77.5828 32.8639C75.8286 33.8538 74.4148 35.2936 73.3675 37.1833C72.3202 39.0731 71.7966 41.2971 71.7966 43.8424C71.7966 46.3878 72.3202 48.6889 73.3675 50.6044C74.4148 52.5199 75.8155 53.9725 77.5828 54.9881C79.337 55.9908 81.2875 56.505 83.4214 56.505C85.5552 56.505 87.5188 56.0037 89.2992 54.9881C91.0796 53.9854 92.4934 52.5199 93.5407 50.6044C94.588 48.6889 95.1116 46.4649 95.1116 43.9067C95.1116 41.3485 94.588 39.1373 93.5407 37.2476Z" fill="#E1D4C1"/>
<path d="M116.28 17.8745V60.8888H110.56V17.8745H116.28Z" fill="#E1D4C1"/>
<path d="M205.181 61.6602C202.171 61.6602 199.552 61.0817 197.327 59.9376C195.101 58.7806 193.426 57.2894 192.3 55.4382C191.174 53.587 190.598 51.6073 190.598 49.5118C190.598 46.7993 191.227 44.6525 192.483 43.0584C193.74 41.4772 195.245 40.3073 197.013 39.536C198.767 38.7775 201.097 38.0062 203.99 37.222C206.373 36.5664 208.232 35.975 209.554 35.4608C210.876 34.9466 211.989 34.201 212.879 33.2111C213.782 32.2213 214.227 30.9486 214.227 29.3802C214.227 27.1948 213.468 25.4979 211.963 24.2895C210.457 23.081 208.507 22.464 206.124 22.464C203.571 22.464 201.516 23.0939 199.971 24.3409C198.427 25.6007 197.536 27.0405 197.327 28.686H191.043C191.384 25.3565 192.85 22.6825 195.468 20.6642C198.086 18.6459 201.451 17.6432 205.548 17.6432C208.402 17.6432 210.915 18.1317 213.115 19.1216C215.314 20.1114 217.016 21.5127 218.233 23.3124C219.451 25.1251 220.053 27.1948 220.053 29.5473C220.053 32.2213 219.438 34.3553 218.194 35.9365C216.963 37.5177 215.471 38.6875 213.73 39.4203C211.989 40.1659 209.672 40.8987 206.792 41.6443C204.448 42.2614 202.576 42.8398 201.202 43.3669C199.814 43.9069 198.662 44.6782 197.746 45.7066C196.829 46.735 196.358 48.072 196.358 49.7175C196.358 51.8129 197.144 53.5356 198.715 54.8725C200.285 56.2095 202.432 56.878 205.155 56.878C207.878 56.878 210.169 56.1838 211.662 54.8083C213.154 53.4327 213.992 51.7358 214.201 49.7175H220.302C220.262 52.0572 219.595 54.1269 218.286 55.9138C216.99 57.7007 215.196 59.102 212.918 60.1047C210.64 61.1074 208.048 61.6216 205.155 61.6216L205.181 61.6602Z" fill="#E1D4C1"/>
<path d="M166.223 32.0412V27.4133H175.203V18.903H180.924V27.4133H185.388V32.0412H180.924V51.9671C180.924 55.2581 180.125 57.6235 178.541 59.0633C176.957 60.5032 174.562 61.2231 171.381 61.2231H166.223V56.4665H170.438C172.192 56.4665 173.436 56.1323 174.143 55.451C174.85 54.7696 175.216 53.6126 175.216 51.9671V32.0412H166.236H166.223Z" fill="#E1D4C1"/>
<path d="M161.444 44.1896C161.444 47.6092 160.737 50.643 159.31 53.317C157.883 55.9909 155.933 58.0735 153.472 59.5519C150.998 61.0302 148.235 61.7758 145.172 61.7758C142.109 61.7758 139.595 61.1331 137.344 59.8347C135.092 58.5363 133.416 56.9036 132.291 54.9239V61.2231H126.504V27.4133H132.291V33.5839C133.377 31.6556 135.04 30.0486 137.252 28.7759C139.478 27.5032 142.096 26.8605 145.107 26.8605C148.118 26.8605 150.945 27.5804 153.433 29.0202C155.92 30.46 157.883 32.4912 159.31 35.1008C160.737 37.7105 161.444 40.7443 161.444 44.2025V44.1896ZM132.291 44.2539C132.291 46.7993 132.814 49.0361 133.862 50.9516C134.909 52.867 136.323 54.3197 138.103 55.3353C139.883 56.338 141.847 56.8522 143.981 56.8522C146.115 56.8522 148.065 56.3509 149.819 55.3353C151.574 54.3325 152.987 52.867 154.035 50.9516C155.082 49.0361 155.606 46.7864 155.606 44.1896C155.606 41.5928 155.082 39.4202 154.035 37.5305C152.987 35.6407 151.587 34.2009 149.819 33.2111C148.065 32.2212 146.115 31.7327 143.981 31.7327C141.847 31.7327 139.883 32.234 138.103 33.2496C136.323 34.2524 134.909 35.705 133.862 37.5948C132.814 39.4845 132.291 41.7085 132.291 44.2539Z" fill="#E1D4C1"/>
</g>
<path d="M12.6299 59.8089C10.3521 58.8062 8.5586 57.4049 7.26259 55.618C5.96659 53.8311 5.29895 51.7614 5.24658 49.4217H11.347C11.5564 51.44 12.4074 53.1369 13.8866 54.5125C15.3659 55.888 17.539 56.5822 20.3929 56.5822C23.2467 56.5822 25.2627 55.9137 26.8336 54.5767C28.4045 53.2398 29.19 51.5172 29.19 49.4217C29.19 47.7762 28.7318 46.4393 27.8024 45.4108C26.8729 44.3824 25.734 43.5982 24.3463 43.0711C22.9587 42.5312 21.0998 41.9656 18.7565 41.3485C15.8634 40.6029 13.5463 39.8701 11.8183 39.1245C10.0772 38.3789 8.59788 37.2219 7.35423 35.6407C6.12368 34.0595 5.49531 31.9255 5.49531 29.2515C5.49531 26.9119 6.0975 24.8293 7.31496 23.0167C8.53242 21.204 10.2343 19.8028 12.4335 18.8258C14.6328 17.8359 17.1594 17.3474 20.0001 17.3474C24.1107 17.3474 27.462 18.3501 30.0802 20.3684C32.6984 22.3867 34.1777 25.0607 34.505 28.3902H28.2213C28.0118 26.7447 27.1347 25.2921 25.5769 24.0451C24.0322 22.7853 21.9769 22.1682 19.4241 22.1682C17.0416 22.1682 15.091 22.7724 13.5855 23.9937C12.0801 25.2021 11.3208 26.899 11.3208 29.0844C11.3208 30.6528 11.7659 31.9255 12.6692 32.9153C13.5725 33.9052 14.6852 34.6508 15.9943 35.165C17.3165 35.6793 19.1623 36.2706 21.558 36.9262C24.4511 37.7104 26.7682 38.4817 28.5355 39.2402C30.2897 39.9987 31.8082 41.1685 33.0649 42.7626C34.3217 44.3438 34.95 46.4907 34.95 49.216C34.95 51.3115 34.3871 53.2912 33.2482 55.1424C32.1224 56.9936 30.4467 58.4977 28.2213 59.6418C25.9958 60.7988 23.3776 61.3644 20.3667 61.3644C17.3558 61.3644 14.8946 60.8631 12.6037 59.8475L12.6299 59.8089Z" fill="#6691B4"/>
<path d="M50.3582 31.694V51.62C50.3582 53.2655 50.7117 54.4225 51.4317 55.1038C52.1386 55.7851 53.3822 56.1194 55.1364 56.1194H59.3517V60.8759H54.1939C51.0128 60.8759 48.6171 60.156 47.0331 58.7162C45.436 57.2764 44.6506 54.911 44.6506 51.62V31.694H40.1865V27.0661H44.6506V18.5558H50.3713V27.0661H59.3517V31.694H50.3713H50.3582Z" fill="#6691B4"/>
<path d="M66.2632 34.7536C67.6901 32.144 69.6407 30.1128 72.1411 28.673C74.6415 27.2332 77.4037 26.5133 80.467 26.5133C83.5302 26.5133 86.0961 27.1561 88.3216 28.4288C90.547 29.7015 92.1965 31.3084 93.283 33.2367V27.0661H99.0693V60.8759H93.283V54.5767C92.1572 56.5565 90.4685 58.1891 88.2299 59.4875C85.9914 60.7859 83.3862 61.4287 80.4015 61.4287C77.4168 61.4287 74.576 60.6831 72.1018 59.2047C69.6276 57.7263 67.6771 55.6437 66.2632 52.9698C64.8363 50.2959 64.1294 47.2491 64.1294 43.8424C64.1294 40.4357 64.8363 37.3504 66.2632 34.7408V34.7536ZM91.7121 37.2476C90.6648 35.3578 89.251 33.9052 87.4706 32.9025C85.6903 31.8997 83.7266 31.3855 81.5928 31.3855C79.459 31.3855 77.5084 31.874 75.7542 32.8639C74 33.8538 72.5862 35.2936 71.5389 37.1833C70.4916 39.0731 69.968 41.2971 69.968 43.8424C69.968 46.3878 70.4916 48.6889 71.5389 50.6044C72.5862 52.5199 73.9869 53.9725 75.7542 54.9881C77.5084 55.9908 79.459 56.505 81.5928 56.505C83.7266 56.505 85.6903 56.0037 87.4706 54.9881C89.251 53.9854 90.6648 52.5199 91.7121 50.6044C92.7594 48.6889 93.283 46.4649 93.283 43.9067C93.283 41.3485 92.7594 39.1373 91.7121 37.2476Z" fill="#6691B4"/>
<path d="M114.452 17.8745V60.8887H108.731V17.8745H114.452Z" fill="#6691B4"/>
<path d="M201.733 61.6602C198.722 61.6602 196.104 61.0817 193.878 59.9376C191.653 58.7806 189.977 57.2893 188.851 55.4382C187.725 53.587 187.149 51.6072 187.149 49.5118C187.149 46.7993 187.778 44.6525 189.035 43.0584C190.291 41.4772 191.797 40.3073 193.564 39.536C195.318 38.7775 197.648 38.0062 200.541 37.222C202.924 36.5664 204.783 35.975 206.105 35.4608C207.427 34.9466 208.54 34.201 209.43 33.2111C210.334 32.2213 210.779 30.9486 210.779 29.3802C210.779 27.1948 210.019 25.4979 208.514 24.2894C207.008 23.081 205.058 22.464 202.675 22.464C200.123 22.464 198.067 23.0939 196.523 24.3409C194.978 25.6007 194.088 27.0405 193.878 28.686H187.595C187.935 25.3564 189.401 22.6825 192.019 20.6642C194.637 18.6459 198.002 17.6432 202.099 17.6432C204.953 17.6432 207.467 18.1317 209.666 19.1216C211.865 20.1114 213.567 21.5127 214.785 23.3124C216.002 25.1251 216.604 27.1948 216.604 29.5473C216.604 32.2213 215.989 34.3553 214.745 35.9365C213.515 37.5177 212.022 38.6875 210.281 39.4203C208.54 40.1659 206.223 40.8987 203.343 41.6443C201 42.2613 199.128 42.8398 197.753 43.3669C196.365 43.9068 195.213 44.6782 194.297 45.7066C193.381 46.735 192.909 48.072 192.909 49.7175C192.909 51.8129 193.695 53.5356 195.266 54.8725C196.837 56.2095 198.984 56.878 201.707 56.878C204.43 56.878 206.72 56.1838 208.213 54.8083C209.705 53.4327 210.543 51.7358 210.752 49.7175H216.853C216.814 52.0572 216.146 54.1269 214.837 55.9138C213.541 57.7007 211.747 59.102 209.47 60.1047C207.192 61.1074 204.6 61.6216 201.707 61.6216L201.733 61.6602Z" fill="#6691B4"/>
<path d="M162.774 32.0411V27.4132H171.754V18.9029H177.475V27.4132H181.939V32.0411H177.475V51.9671C177.475 55.2581 176.677 57.6235 175.093 59.0633C173.509 60.5031 171.113 61.223 167.932 61.223H162.774V56.4665H166.989C168.743 56.4665 169.987 56.1322 170.694 55.4509C171.401 54.7696 171.767 53.6126 171.767 51.9671V32.0411H162.787H162.774Z" fill="#6691B4"/>
<path d="M157.996 44.1895C157.996 47.6091 157.289 50.643 155.862 53.3169C154.435 55.9908 152.485 58.0734 150.024 59.5518C147.549 61.0302 144.787 61.7758 141.724 61.7758C138.661 61.7758 136.147 61.133 133.895 59.8346C131.644 58.5362 129.968 56.9036 128.842 54.9238V61.223H123.056V27.4132H128.842V33.5838C129.929 31.6555 131.591 30.0486 133.804 28.7759C136.029 27.5032 138.648 26.8604 141.658 26.8604C144.669 26.8604 147.497 27.5803 149.984 29.0201C152.472 30.4599 154.435 32.4911 155.862 35.1007C157.289 37.7104 157.996 40.7443 157.996 44.2024V44.1895ZM128.842 44.2538C128.842 46.7992 129.366 49.036 130.413 50.9515C131.461 52.867 132.874 54.3196 134.655 55.3352C136.435 56.3379 138.399 56.8521 140.533 56.8521C142.666 56.8521 144.617 56.3508 146.371 55.3352C148.125 54.3325 149.539 52.867 150.587 50.9515C151.634 49.036 152.157 46.7863 152.157 44.1895C152.157 41.5927 151.634 39.4202 150.587 37.5304C149.539 35.6407 148.138 34.2009 146.371 33.211C144.617 32.2211 142.666 31.7326 140.533 31.7326C138.399 31.7326 136.435 32.234 134.655 33.2496C132.874 34.2523 131.461 35.705 130.413 37.5947C129.366 39.4845 128.842 41.7084 128.842 44.2538Z" fill="#6691B4"/>
<g opacity="0.6">
<path d="M9.70362 60.2018C7.42579 59.1991 5.63233 57.7978 4.33632 56.0109C3.04032 54.224 2.37268 52.1543 2.32031 49.8146H8.42071C8.63016 51.8329 9.48107 53.5298 10.9604 54.9054C12.4396 56.2809 14.6127 56.9751 17.4666 56.9751C20.3204 56.9751 22.3364 56.3066 23.9073 54.9696C25.4782 53.6327 26.2637 51.91 26.2637 49.8146C26.2637 48.1691 25.8055 46.8322 24.8761 45.8037C23.9466 44.7753 22.8077 43.9911 21.42 43.464C20.0324 42.9241 18.1735 42.3585 15.8302 41.7414C12.9371 40.9958 10.62 40.263 8.89198 39.5174C7.15088 38.7718 5.6716 37.6148 4.42796 36.0336C3.19741 34.4524 2.56904 32.3184 2.56904 29.6444C2.56904 27.3047 3.17123 25.2222 4.38869 23.4095C5.60615 21.5969 7.30797 20.1957 9.50726 19.2187C11.7065 18.2288 14.2331 17.7403 17.0738 17.7403C21.1844 17.7403 24.5357 18.743 27.1539 20.7613C29.7721 22.7796 31.2514 25.4536 31.5786 28.7831H25.295C25.0855 27.1376 24.2084 25.685 22.6506 24.438C21.1059 23.1781 19.0506 22.5611 16.4978 22.5611C14.1153 22.5611 12.1647 23.1653 10.6593 24.3866C9.1538 25.595 8.39452 27.2919 8.39452 29.4773C8.39452 31.0457 8.83962 32.3184 9.74289 33.3082C10.6462 34.2981 11.7589 35.0437 13.068 35.5579C14.3902 36.0721 16.236 36.6635 18.6317 37.3191C21.5248 38.1033 23.8419 38.8746 25.6092 39.6331C27.3633 40.3916 28.8819 41.5614 30.1386 43.1555C31.3954 44.7367 32.0237 46.8836 32.0237 49.6089C32.0237 51.7044 31.4608 53.6841 30.3219 55.5353C29.1961 57.3865 27.5204 58.8905 25.295 60.0347C23.0695 61.1917 20.4513 61.7573 17.4404 61.7573C14.4295 61.7573 11.9684 61.256 9.67744 60.2404L9.70362 60.2018Z" fill="#A0D0DA"/>
<path d="M46.9451 32.0869V52.0128C46.9451 53.6583 47.2986 54.8153 48.0186 55.4966C48.7255 56.178 49.9691 56.5122 51.7233 56.5122H55.9386V61.2687H50.7808C47.5997 61.2687 45.204 60.5488 43.62 59.109C42.0229 57.6692 41.2375 55.3038 41.2375 52.0128V32.0869H36.7734V27.4589H41.2375V18.9486H46.9582V27.4589H55.9386V32.0869H46.9582H46.9451Z" fill="#A0D0DA"/>
<path d="M63.8457 34.9607C65.2727 32.3511 67.2232 30.3199 69.7236 28.8801C72.224 27.4403 74.9862 26.7204 78.0494 26.7204C81.1127 26.7204 83.6786 27.3632 85.904 28.6359C88.1295 29.9085 89.779 31.5155 90.8655 33.4438V27.2732H96.6517V61.083H90.8655V54.7838C89.7397 56.7636 88.051 58.3962 85.8124 59.6946C83.5738 60.993 80.9687 61.6358 77.984 61.6358C74.9993 61.6358 72.1585 60.8902 69.6843 59.4118C67.2101 57.9334 65.2596 55.8508 63.8457 53.1769C62.4188 50.503 61.7119 47.4562 61.7119 44.0495C61.7119 40.6428 62.4188 37.5575 63.8457 34.9479V34.9607ZM89.2946 37.4547C88.2473 35.5649 86.8335 34.1123 85.0531 33.1096C83.2727 32.1068 81.3091 31.5926 79.1753 31.5926C77.0414 31.5926 75.0909 32.0811 73.3367 33.071C71.5825 34.0609 70.1687 35.5007 69.1214 37.3904C68.0741 39.2802 67.5505 41.5042 67.5505 44.0495C67.5505 46.5949 68.0741 48.896 69.1214 50.8115C70.1687 52.727 71.5694 54.1796 73.3367 55.1952C75.0909 56.1979 77.0414 56.7121 79.1753 56.7121C81.3091 56.7121 83.2727 56.2108 85.0531 55.1952C86.8335 54.1925 88.2473 52.727 89.2946 50.8115C90.3419 48.896 90.8655 46.672 90.8655 44.1138C90.8655 41.5556 90.3419 39.3444 89.2946 37.4547Z" fill="#A0D0DA"/>
<path d="M111.039 18.2673V61.2816H105.318V18.2673H111.039Z" fill="#A0D0DA"/>
<path d="M199.939 62.053C196.928 62.053 194.31 61.4745 192.085 60.3303C189.859 59.1734 188.184 57.6821 187.058 55.8309C185.932 53.9798 185.356 52 185.356 49.9046C185.356 47.1921 185.984 45.0452 187.241 43.4512C188.498 41.8699 190.003 40.7001 191.771 39.9288C193.525 39.1703 195.855 38.399 198.748 37.6148C201.131 36.9592 202.989 36.3678 204.312 35.8536C205.634 35.3394 206.747 34.5938 207.637 33.6039C208.54 32.614 208.985 31.3413 208.985 29.773C208.985 27.5875 208.226 25.8906 206.72 24.6822C205.215 23.4738 203.264 22.8567 200.882 22.8567C198.329 22.8567 196.274 23.4867 194.729 24.7336C193.184 25.9935 192.294 27.4333 192.085 29.0788H185.801C186.141 25.7492 187.608 23.0753 190.226 21.057C192.844 19.0387 196.208 18.0359 200.306 18.0359C203.16 18.0359 205.673 18.5245 207.872 19.5143C210.072 20.5042 211.774 21.9054 212.991 23.7052C214.208 25.5178 214.811 27.5875 214.811 29.9401C214.811 32.614 214.195 34.748 212.952 36.3292C211.721 37.9105 210.229 39.0803 208.488 39.8131C206.747 40.5587 204.429 41.2914 201.549 42.0371C199.206 42.6541 197.334 43.2326 195.96 43.7597C194.572 44.2996 193.42 45.0709 192.504 46.0994C191.587 47.1278 191.116 48.4648 191.116 50.1103C191.116 52.2057 191.901 53.9283 193.472 55.2653C195.043 56.6023 197.19 57.2708 199.913 57.2708C202.636 57.2708 204.927 56.5766 206.419 55.201C207.912 53.8255 208.75 52.1286 208.959 50.1103H215.059C215.02 52.45 214.352 54.5197 213.043 56.3066C211.747 58.0935 209.954 59.4947 207.676 60.4975C205.398 61.5002 202.806 62.0144 199.913 62.0144L199.939 62.053Z" fill="#A0D0DA"/>
<path d="M160.981 32.4341V27.8061H169.961V19.2958H175.682V27.8061H180.146V32.4341H175.682V52.36C175.682 55.651 174.884 58.0164 173.3 59.4562C171.716 60.896 169.32 61.616 166.139 61.616H160.981V56.8594H165.196C166.95 56.8594 168.194 56.5252 168.901 55.8439C169.608 55.1625 169.974 54.0055 169.974 52.36V32.4341H160.994H160.981Z" fill="#A0D0DA"/>
<path d="M156.202 44.5824C156.202 48.0019 155.496 51.0358 154.069 53.7097C152.642 56.3837 150.691 58.4662 148.23 59.9446C145.756 61.423 142.994 62.1686 139.93 62.1686C136.867 62.1686 134.354 61.5258 132.102 60.2274C129.85 58.929 128.175 57.2964 127.049 55.3167V61.6158H121.263V27.806H127.049V33.9766C128.135 32.0483 129.798 30.4414 132.01 29.1687C134.236 27.896 136.854 27.2532 139.865 27.2532C142.876 27.2532 145.704 27.9731 148.191 29.4129C150.678 30.8528 152.642 32.8839 154.069 35.4936C155.496 38.1032 156.202 41.1371 156.202 44.5952V44.5824ZM127.049 44.6466C127.049 47.192 127.573 49.4289 128.62 51.3443C129.667 53.2598 131.081 54.7125 132.861 55.728C134.642 56.7308 136.605 57.245 138.739 57.245C140.873 57.245 142.824 56.7436 144.578 55.728C146.332 54.7253 147.746 53.2598 148.793 51.3443C149.84 49.4289 150.364 47.1792 150.364 44.5824C150.364 41.9856 149.84 39.813 148.793 37.9232C147.746 36.0335 146.345 34.5937 144.578 33.6038C142.824 32.614 140.873 32.1254 138.739 32.1254C136.605 32.1254 134.642 32.6268 132.861 33.6424C131.081 34.6451 129.667 36.0978 128.62 37.9875C127.573 39.8773 127.049 42.1013 127.049 44.6466Z" fill="#A0D0DA"/>
</g>
</g>
<defs>
<filter id="filter0_dd_175_142" x="0.85727" y="0.927132" width="220.908" height="63.0703" filterUnits="userSpaceOnUse" color-interpolation-filters="sRGB">
<feFlood flood-opacity="0" result="BackgroundImageFix"/>
<feColorMatrix in="SourceAlpha" type="matrix" values="0 0 0 0 0 0 0 0 0 0 0 0 0 0 0 0 0 0 127 0" result="hardAlpha"/>
<feOffset dy="0.365761"/>
<feGaussianBlur stdDeviation="0.365761"/>
<feColorMatrix type="matrix" values="0 0 0 0 0 0 0 0 0 0 0 0 0 0 0 0 0 0 0.3 0"/>
<feBlend mode="normal" in2="BackgroundImageFix" result="effect1_dropShadow_175_142"/>
<feColorMatrix in="SourceAlpha" type="matrix" values="0 0 0 0 0 0 0 0 0 0 0 0 0 0 0 0 0 0 127 0" result="hardAlpha"/>
<feMorphology radius="0.365761" operator="dilate" in="SourceAlpha" result="effect2_dropShadow_175_142"/>
<feOffset dy="0.365761"/>
<feGaussianBlur stdDeviation="0.548641"/>
<feColorMatrix type="matrix" values="0 0 0 0 0 0 0 0 0 0 0 0 0 0 0 0 0 0 0.15 0"/>
<feBlend mode="normal" in2="effect1_dropShadow_175_142" result="effect2_dropShadow_175_142"/>
<feBlend mode="normal" in="SourceGraphic" in2="effect2_dropShadow_175_142" result="shape"/>
</filter>
<filter id="filter1_d_175_142" x="84.2243" y="-18.4018" width="47.7931" height="51.735" filterUnits="userSpaceOnUse" color-interpolation-filters="sRGB">
<feFlood flood-opacity="0" result="BackgroundImageFix"/>
<feColorMatrix in="SourceAlpha" type="matrix" values="0 0 0 0 0 0 0 0 0 0 0 0 0 0 0 0 0 0 127 0" result="hardAlpha"/>
<feOffset dy="1.46304"/>
<feGaussianBlur stdDeviation="10.9728"/>
<feComposite in2="hardAlpha" operator="out"/>
<feColorMatrix type="matrix" values="0 0 0 0 0 0 0 0 0 0 0 0 0 0 0 0 0 0 0.25 0"/>
<feBlend mode="normal" in2="BackgroundImageFix" result="effect1_dropShadow_175_142"/>
<feBlend mode="normal" in="SourceGraphic" in2="effect1_dropShadow_175_142" result="shape"/>
</filter>
<clipPath id="clip0_175_142">
<rect width="10.9728" height="11.3434" fill="white" transform="translate(105.465 2.02441)"/>
</clipPath>
</defs>
</svg>
