<svg width="12" height="10" viewBox="0 0 12 10" fill="none" xmlns="http://www.w3.org/2000/svg">
<path fill-rule="evenodd" clip-rule="evenodd" d="M5.47768 2.50854L5.50105 2.89391L5.11154 2.84673C3.69373 2.66584 2.45509 2.05239 1.40341 1.02212L0.889261 0.510917L0.756828 0.888421C0.476381 1.72994 0.655555 2.61865 1.23982 3.21637C1.55143 3.54668 1.48131 3.59387 0.943792 3.39725C0.756828 3.33434 0.593234 3.28715 0.577653 3.31074C0.523122 3.36579 0.710087 4.08148 0.8581 4.36461C1.06064 4.75784 1.47352 5.14321 1.92535 5.37129L2.30707 5.55217L1.85524 5.56004C1.41899 5.56004 1.40341 5.5679 1.45015 5.73306C1.60596 6.24427 2.22138 6.78693 2.90692 7.02287L3.38991 7.18803L2.96924 7.4397C2.34602 7.80147 1.61375 8.00595 0.88147 8.02168C0.530912 8.02955 0.242676 8.06101 0.242676 8.0846C0.242676 8.16325 1.19308 8.60367 1.74618 8.77669C3.40549 9.2879 5.3764 9.06769 6.85654 8.19471C7.90821 7.5734 8.95989 6.33864 9.45067 5.14321C9.71553 4.50617 9.9804 3.3422 9.9804 2.78381C9.9804 2.42203 10.0038 2.37485 10.44 1.94229C10.6971 1.69062 10.9386 1.41535 10.9853 1.33671C11.0632 1.18728 11.0554 1.18728 10.6581 1.32098C9.99598 1.55692 9.9025 1.52546 10.2297 1.17155C10.4712 0.91988 10.7594 0.463728 10.7594 0.330029C10.7594 0.306435 10.6426 0.345758 10.5101 0.41654C10.3699 0.495187 10.0583 0.613157 9.8246 0.683939L9.40393 0.817639L9.02221 0.558105C8.81187 0.41654 8.51585 0.259247 8.36004 0.212059C7.96274 0.101953 7.35511 0.117683 6.99676 0.243518C6.02299 0.597428 5.40756 1.50973 5.47768 2.50854Z" fill="white"/>
</svg>
