<svg width="13" height="10" viewBox="0 0 13 10" fill="none" xmlns="http://www.w3.org/2000/svg">
<path fill-rule="evenodd" clip-rule="evenodd" d="M10.8638 0.76468C11.375 0.904944 11.7775 1.31823 11.9141 1.84307C12.1624 2.79428 12.1624 4.77899 12.1624 4.77899C12.1624 4.77899 12.1624 6.76363 11.9141 7.71491C11.7775 8.23975 11.375 8.65304 10.8638 8.79337C9.93747 9.04822 6.2226 9.04822 6.2226 9.04822C6.2226 9.04822 2.50773 9.04822 1.58133 8.79337C1.07017 8.65304 0.66761 8.23975 0.530995 7.71491C0.282806 6.76363 0.282806 4.77899 0.282806 4.77899C0.282806 4.77899 0.282806 2.79428 0.530995 1.84307C0.66761 1.31823 1.07017 0.904944 1.58133 0.76468C2.50773 0.509766 6.2226 0.509766 6.2226 0.509766C6.2226 0.509766 9.93747 0.509766 10.8638 0.76468ZM5.1089 3.10839V6.82076L8.0788 4.96464L5.1089 3.10839Z" fill="white"/>
</svg>
